<svg version="1.1" xmlns="http://www.w3.org/2000/svg" width="270" height="266">
  <!-- Zemin: Mavi -->
  <path d="M0 0 C89.1 0 178.2 0 270 0 C270 87.78 270 175.56 270 266 C180.9 266 91.8 266 0 266 C0 178.22 0 90.44 0 0 Z"
    fill="#3B82F6" transform="translate(0,0)" />

  <!-- Kedi çizimi: Bordo -->
  <path d="M0 0 C3.48331435 3.01887244 4.79157144 5.56909529 6 10 C7.209198 14.4329278 9.40289182 16.4512353 13 19 C15.8446411 21.1249233 18.9111256 22.9504921 22 25 C22.4958635 25.3186519 22.8015376 26.4468886 22.9252179 27.1735247 C23.4598856 30.3327566 24.6084685 33.4672631 24.5802141 36.6111223 C24.5335547 41.8736795 22.9252179 46.7695833 20.1164868 51.0823503 C17.280263 55.4318236 13.3409538 58.6381423 9 61 C4.33713128 63.5446853 0.61823018 62.3149291 -4 60"
    fill="#800020" transform="translate(260,40)" />
  <path d="M0 0 C1.49279725 1.77808418 2.74197208 2.69722363 4 4 C5.32126639 5.36393192 7.11879246 6.12409567 8.29289322 7.29289322 C9.45096709 8.44593439 10.327417 9.77795473 11.5 11 C12.6886467 12.2382957 13.8753392 13.4533287 15 14.7071068 C16.2267726 16.0653536 17.4703783 17.5279444 18.7071068 18.9142136 C19.7445797 20.0662555 20.7564883 21.2727596 21.7928932 22.4142136 C23.0128649 23.7682029 24.1968363 25.0603276 25.5 26.2928932 C27.0261843 27.7343245 28.4587065 29.2503874 30 30.7071068 C31.2898824 31.9000069 32.7928932 32.7928932 34 34"
    fill="#800020" transform="translate(192,105)" />
  <path d="M0 0 C1.57032593 0.401623905 2.97546445 0.765334637 5 1 C7.00603097 1.23364762 8.97364804 1.55458058 11 1.5 C13.3044035 1.43837636 15.7507182 0.67964065 18 1.05882353 C20.3046462 1.45286636 22.4643997 2.34136889 24.7777778 3.0372413 C27.3236502 3.80390652 29.6661974 5.08471105 32 6.5 C34.3170134 7.90554684 36.4609396 9.62122961 39 11 C41.3663574 12.2782726 43.5809216 13.6423996 46 14.5 C48.3969354 15.3470325 51.0484566 15.5 53.5 16 C55.9933625 16.5095698 58.3470325 17.6030646 61 18 C63.7249347 18.4073011 66.5352466 17.4967818 69 18.5 C71.4218295 19.4855721 74.0781872 20.1945806 76.5 21 C78.9304474 21.8086338 81.4016239 22.4296741 83.7928932 23.2071068 C86.3206074 24.0309372 88.6724069 25.0108405 91 26 C93.3246599 26.9876702 95.5975993 28.0361573 98 29 C100.35898 29.9449344 102.584349 31.1880897 105 32 C107.520697 32.8468772 110.5 32.5 113 33"
    fill="#800020" transform="translate(155,62)" />
  <path d="M0 0 C0.215481171 1.0257326 0.179529837 1.96013751 0.5 3 C0.812621737 4.01328445 1.51957394 4.76924388 2 5.5 C2.49729858 6.25281276 2.91209807 6.98453757 3.5 7.5 C4.25550631 8.17571169 5.38453063 8.3484176 6.5 8.5 C7.83685086 8.67807023 9.15830915 8.81004544 10.5 9 C11.8802417 9.19514103 13.2021892 9.77907333 14.5 10.5 C15.8734091 11.2669653 17.0328918 12.4593514 18.5 13.5 C20.1713022 14.6858695 22.0260639 15.4874814 23.7071068 16.7071068 C25.3184865 17.8743941 26.8662357 19.1344192 28.5 20.2928932 C30.2180555 21.5089994 32.0236145 22.5978412 33.7071068 23.9142136 C35.3370873 25.1902058 36.682834 26.8649434 38.2071068 28.2928932 C39.5804169 29.5734385 41.0771315 30.7039218 42.5 32 C43.9171718 33.2916238 45.3736849 34.5193684 46.7071068 35.9142136 C48.1040916 37.3769526 49.5 39 51 40.5 C52.5690157 42.0706811 54.0813304 43.7082052 55.7071068 45.2071068 C57.2548045 46.6360147 58.9171718 47.9171718 60.5 49.2928932 C62.0738332 50.6602187 63.4768487 52.2342958 65 53.7071068 C66.4093153 55.0650287 67.8753392 56.3777174 69.2071068 57.7928932 C70.6096566 59.2813499 71.9405744 60.8971946 73.5 62.2928932 C74.9690015 63.6119844 76.5018702 64.8117617 78 66 C79.5018702 67.1905704 81.0241742 68.3629986 82.5 69.5 C83.9328228 70.6032738 85.3613074 71.7740301 86.7928932 72.9142136 C88.2579499 74.0822583 89.7343245 75.2261843 91.2071068 76.5 C92.5986536 77.7059299 93.9171718 79.0738332 95.2071068 80.5 C96.617327 82.0598014 97.8928704 83.7071068 99.2071068 85.2928932 C100.494031 86.8479917 101.603064 88.3470325 102.707107 90 C103.879464 91.7634992 104.924997 93.5605708 106 95.2928932"
    fill="#800020" transform="translate(97,17)" />
</svg>