<?xml version="1.0" encoding="UTF-8"?>
<svg version="1.1" xmlns="http://www.w3.org/2000/svg" width="270" height="266">
<path d="M0 0 C89.1 0 178.2 0 270 0 C270 87.78 270 175.56 270 266 C180.9 266 91.8 266 0 266 C0 178.22 0 90.44 0 0 Z " fill="#36373C" transform="translate(0,0)"/>
<path d="M0 0 C3.48331435 3.01887244 4.79157144 5.56909529 6 10 C6.66 10 7.32 10 8 10 C8 10.66 8 11.32 8 12 C8.66 12 9.32 12 10 12 C10 82.62 10 153.24 10 226 C-62.27 226 -134.54 226 -209 226 C-209 225.34 -209 224.68 -209 224 C-209.66 224 -210.32 224 -211 224 C-212.10844919 220.67465243 -211.84454356 218.37817425 -211 215 C-211.99 215 -212.98 215 -214 215 C-214.33 216.32 -214.66 217.64 -215 219 C-220.23196637 217.19587366 -224.61237248 215.40041133 -229 212 C-229 211.34 -229 210.68 -229 210 C-229.56332031 209.78085938 -230.12664062 209.56171875 -230.70703125 209.3359375 C-233.7395164 207.56914036 -235.4811879 205.34551046 -237.6875 202.625 C-238.86892578 201.19027344 -238.86892578 201.19027344 -240.07421875 199.7265625 C-241.77513368 197.31837057 -242.59890327 195.86886137 -243 193 C-238.42674829 194.81427122 -235.51393213 198.40716476 -232.2421875 201.92382812 C-229.09287969 205.20140831 -226.09747429 207.092854 -222 209 C-221.360625 209.721875 -220.72125 210.44375 -220.0625 211.1875 C-217.9860888 213.38304684 -217.9860888 213.38304684 -214.25 213.25 C-213.1775 213.1675 -212.105 213.085 -211 213 C-210.95101562 212.37351563 -210.90203125 211.74703125 -210.8515625 211.1015625 C-210.77679688 210.28429687 -210.70203125 209.46703125 -210.625 208.625 C-210.55539063 207.81289062 -210.48578125 207.00078125 -210.4140625 206.1640625 C-210 204 -210 204 -208 202 C-208 207.61 -208 213.22 -208 219 C-200.41 219 -192.82 219 -185 219 C-184.814375 216.3084375 -184.814375 216.3084375 -184.625 213.5625 C-184.25035923 209.09803081 -183.67493048 204.87925192 -182.5859375 200.5390625 C-182.12197257 198.52854782 -181.75108961 196.49658124 -181.4140625 194.4609375 C-178.99768969 180.2754077 -172.97697138 171.20339958 -162 162 C-158.24123164 160.01603959 -155.09845371 159.72882981 -150.875 159.75 C-149.32425781 159.74226563 -149.32425781 159.74226563 -147.7421875 159.734375 C-145 160 -145 160 -142 162 C-127.82612312 165.6975331 -112.06424281 164.80763647 -98 161 C-98 160.34 -98 159.68 -98 159 C-95.69 158.67 -93.38 158.34 -91 158 C-91 157.34 -91 156.68 -91 156 C-88.09399739 154.74335022 -86.20395416 154 -83 154 C-83 153.34 -83 152.68 -83 152 C-81.4609375 150.44921875 -81.4609375 150.44921875 -79.375 148.6875 C-78.64796875 148.06359375 -77.9209375 147.4396875 -77.171875 146.796875 C-75.86954757 145.71940986 -74.55110366 144.66040016 -73.203125 143.640625 C-69.48967941 140.80958233 -68.05747728 138.54715229 -67 134 C-67.66 134 -68.32 134 -69 134 C-69.33 133.01 -69.66 132.02 -70 131 C-71.66270287 129.66172696 -73.32916181 128.32810215 -75 127 C-75 126.34 -75 125.68 -75 125 C-72.0280615 126.12451727 -69.66559313 127.22293791 -67 129 C-67 129.66 -67 130.32 -67 131 C-65.68 131.33 -64.36 131.66 -63 132 C-63 132.66 -63 133.32 -63 134 C-62.29488281 134.10183594 -61.58976563 134.20367187 -60.86328125 134.30859375 C-57.58940355 135.09914812 -55.11415533 136.40523734 -52.1875 138.0625 C-51.21167969 138.61035156 -50.23585937 139.15820312 -49.23046875 139.72265625 C-48.49441406 140.14417969 -47.75835937 140.56570312 -47 141 C-47 141.66 -47 142.32 -47 143 C-45.3603125 143.2165625 -45.3603125 143.2165625 -43.6875 143.4375 C-40 144 -40 144 -37 145 C-37 145.66 -37 146.32 -37 147 C-35.63875 147.185625 -35.63875 147.185625 -34.25 147.375 C-31 148 -31 148 -29.15625 149.03125 C-26.39879341 150.27010731 -24.25878736 150.19663779 -21.25 150.125 C-20.26515625 150.10695312 -19.2803125 150.08890625 -18.265625 150.0703125 C-17.51796875 150.04710937 -16.7703125 150.02390625 -16 150 C-15.731875 149.360625 -15.46375 148.72125 -15.1875 148.0625 C-14 146 -14 146 -11 145 C-10.67 141.37 -10.34 137.74 -10 134 C-11.340625 133.566875 -12.68125 133.13375 -14.0625 132.6875 C-18.14564659 131.32645114 -22.05655355 129.72958178 -26 128 C-32.44593171 125.35549234 -32.44593171 125.35549234 -39 123 C-39 122.34 -39 121.68 -39 121 C-39.556875 120.896875 -40.11375 120.79375 -40.6875 120.6875 C-43.4769101 119.85821592 -45.6139064 118.65700944 -48 117 C-48 116.34 -48 115.68 -48 115 C-49.423125 114.7834375 -49.423125 114.7834375 -50.875 114.5625 C-54 114 -54 114 -56 113 C-56 112.34 -56 111.68 -56 111 C-56.969375 110.855625 -57.93875 110.71125 -58.9375 110.5625 C-62 110 -62 110 -63 109 C-64.68183948 108.76712992 -66.3712416 108.58735834 -68.0625 108.4375 C-69.44115234 108.31181641 -69.44115234 108.31181641 -70.84765625 108.18359375 C-71.55792969 108.12300781 -72.26820313 108.06242187 -73 108 C-72.835 106.88625 -72.67 105.7725 -72.5 104.625 C-71.9544542 101.27967967 -71.9544542 101.27967967 -72 99 C-69.71454191 100.14272905 -67.46427453 101.29951674 -65.2326355 102.54719543 C-61.81973912 104.08101248 -59.61536708 104.39253898 -55.90283203 104.43237305 C-54.72206085 104.45216721 -53.54128967 104.47196136 -52.32473755 104.49235535 C-51.06515228 104.49874527 -49.80556702 104.50513519 -48.5078125 104.51171875 C-47.20673553 104.52966995 -45.90565857 104.54762115 -44.56515503 104.56611633 C-41.12277213 104.61344821 -37.680454 104.64336555 -34.237854 104.66955566 C-30.7183351 104.69944672 -27.19903899 104.74594743 -23.6796875 104.79101562 C-16.78658564 104.87685683 -9.89340945 104.94428689 -3 105 C-3 104.34 -3 103.68 -3 103 C-2.01 102.34 -1.02 101.68 0 101 C0 95.72 0 90.44 0 85 C-13.2 85 -26.4 85 -40 85 C-40 84.67 -40 84.34 -40 84 C-28.78 84 -17.56 84 -6 84 C-6 83.34 -6 82.68 -6 82 C-3.625 81.375 -3.625 81.375 -1 81 C-0.34 81.66 0.32 82.32 1 83 C2.63492216 55.03790833 2.63492216 55.03790833 3.29956055 27.04003906 C3.31221558 25.04484191 3.33856774 23.04974657 3.36523438 21.0546875 C3.36162115 14.24736864 2.77683222 9.21307052 0 3 C0 2.01 0 1.02 0 0 Z " fill="#242529" transform="translate(260,40)"/>
<path d="M0 0 C3.73077369 1.45201434 7.01465415 3.45314124 10.30078125 5.7265625 C12.2342381 6.87752825 13.92829237 7.37606802 16.125 7.8125 C16.125 8.4725 16.125 9.1325 16.125 9.8125 C16.681875 10.080625 17.23875 10.34875 17.8125 10.625 C22.67703613 13.12300504 26.43817847 15.70432744 30.125 19.8125 C30.125 20.4725 30.125 21.1325 30.125 21.8125 C38.20083258 21.97521209 46.27597232 22.09932812 54.3530426 22.1751852 C58.10428051 22.21160707 61.85439124 22.26094648 65.60498047 22.34057617 C69.22960355 22.41704346 72.85314777 22.45857325 76.47851562 22.4766407 C77.85645522 22.48950314 79.23434051 22.51462196 80.61181641 22.5526104 C89.98284043 22.85559547 89.98284043 22.85559547 97.88134766 18.39453125 C98.98400674 17.22029321 100.06874288 16.02864676 101.125 14.8125 C102.56538659 13.64418643 104.01847196 12.49068132 105.5 11.375 C106.14710938 10.88128906 106.79421875 10.38757812 107.4609375 9.87890625 C109.125 8.8125 109.125 8.8125 111.125 8.8125 C111.125 8.1525 111.125 7.4925 111.125 6.8125 C113.77713008 5.4390755 116.43880997 4.11588612 119.125 2.8125 C120.8265625 1.94625 120.8265625 1.94625 122.5625 1.0625 C129.22899488 -1.42901829 137.13094141 -0.40209043 144.125 -0.1875 C144.125 0.4725 144.125 1.1325 144.125 1.8125 C145.424375 1.9053125 145.424375 1.9053125 146.75 2 C151.1341643 3.05544696 152.91678588 4.68067194 156.125 7.8125 C156.125 8.4725 156.125 9.1325 156.125 9.8125 C156.785 9.8125 157.445 9.8125 158.125 9.8125 C158.455 11.1325 158.785 12.4525 159.125 13.8125 C159.785 13.8125 160.445 13.8125 161.125 13.8125 C162.115 18.7625 162.115 18.7625 163.125 23.8125 C163.785 23.8125 164.445 23.8125 165.125 23.8125 C165.25777344 24.43898438 165.39054688 25.06546875 165.52734375 25.7109375 C165.70394531 26.52820313 165.88054687 27.34546875 166.0625 28.1875 C166.23652344 28.99960937 166.41054687 29.81171875 166.58984375 30.6484375 C167.04830693 32.841963 167.04830693 32.841963 168.125 34.8125 C169.59206731 44.664121 169.27864404 54.76378603 169.25537109 64.69775391 C169.2499431 67.46652531 169.25538067 70.23513934 169.26171875 73.00390625 C169.26105909 74.76562536 169.25978025 76.52734437 169.2578125 78.2890625 C169.25983673 79.11604645 169.26186096 79.9430304 169.26394653 80.79507446 C169.24000409 86.58249183 169.24000409 86.58249183 168.125 88.8125 C164.81251813 88.84138146 161.50006833 88.85925799 158.1875 88.875 C157.24197266 88.88337891 156.29644531 88.89175781 155.32226562 88.90039062 C153.97358398 88.90522461 153.97358398 88.90522461 152.59765625 88.91015625 C151.76500244 88.91539307 150.93234863 88.92062988 150.07446289 88.92602539 C148.125 88.8125 148.125 88.8125 147.125 87.8125 C147.01310328 86.37672603 146.96829268 84.93563426 146.95141602 83.49560547 C146.93792618 82.5772995 146.92443634 81.65899353 146.91053772 80.71286011 C146.89488014 79.21143967 146.89488014 79.21143967 146.87890625 77.6796875 C146.84594877 75.57291281 146.81273746 73.46614208 146.77929688 71.359375 C146.73199789 68.02834999 146.68761644 64.69733879 146.64819336 61.36621094 C146.60831787 58.15802451 146.55678838 54.95018227 146.50390625 51.7421875 C146.49128502 50.25898514 146.49128502 50.25898514 146.47840881 48.74581909 C146.30745857 39.11850151 144.16121107 30.5733428 138.125 22.8125 C138.125 22.1525 138.125 21.4925 138.125 20.8125 C134.825 21.1425 131.525 21.4725 128.125 21.8125 C128.125 22.4725 128.125 23.1325 128.125 23.8125 C125.815 24.4725 123.505 25.1325 121.125 25.8125 C121.125 26.4725 121.125 27.1325 121.125 27.8125 C119.13169158 29.15581654 117.13115134 30.48844012 115.125 31.8125 C114.465 32.8025 113.805 33.7925 113.125 34.8125 C112.465 34.8125 111.805 34.8125 111.125 34.8125 C110.795 35.8025 110.465 36.7925 110.125 37.8125 C109.135 38.3075 109.135 38.3075 108.125 38.8125 C107.47286708 40.83713255 107.47286708 40.83713255 107.125 42.8125 C96.38068366 43.09163069 85.63724154 43.30429921 74.89002609 43.43424606 C69.89835514 43.49664553 64.90917986 43.58113899 59.91894531 43.71777344 C55.09465644 43.84902408 50.27275304 43.92008264 45.44681549 43.95102692 C43.61423451 43.97305011 41.78177138 44.01606096 39.9502182 44.08126068 C24.12819256 44.62163394 24.12819256 44.62163394 17.50960159 38.53483963 C11.125 31.89465807 11.125 31.89465807 11.125 28.8125 C10.465 28.8125 9.805 28.8125 9.125 28.8125 C9.125 28.1525 9.125 27.4925 9.125 26.8125 C8.42375 26.544375 7.7225 26.27625 7 26 C4.125 24.8125 4.125 24.8125 1.3125 23.25 C-2.78291023 21.40305029 -5.34793796 20.8125 -9.875 20.8125 C-14.76485966 23.25742983 -16.24155276 26.01460295 -18.00390625 31.11328125 C-20.91162807 40.99266139 -20.51680786 51.15740756 -20.5625 61.375 C-20.59164467 64.3850904 -20.62617883 67.39503328 -20.66499329 70.40501404 C-20.68733478 72.26469678 -20.70324227 74.12447112 -20.71183777 75.98426819 C-20.71887222 76.82291916 -20.72590668 77.66157013 -20.7331543 78.52563477 C-20.73837349 79.62597801 -20.73837349 79.62597801 -20.74369812 80.74855042 C-20.87907262 82.87651804 -21.29437617 84.76483006 -21.875 86.8125 C-25.02081423 86.84138514 -28.16659469 86.85925923 -31.3125 86.875 C-32.21033203 86.88337891 -33.10816406 86.89175781 -34.03320312 86.90039062 C-35.31420898 86.90522461 -35.31420898 86.90522461 -36.62109375 86.91015625 C-37.41185303 86.91539307 -38.2026123 86.92062988 -39.01733398 86.92602539 C-40.875 86.8125 -40.875 86.8125 -41.875 85.8125 C-41.97307707 84.42279197 -42.00298221 83.02817362 -42.00439453 81.63500977 C-42.00754669 80.74640762 -42.01069885 79.85780548 -42.01394653 78.942276 C-42.0119223 77.97261398 -42.00989807 77.00295197 -42.0078125 76.00390625 C-42.00876923 75.00801987 -42.00972595 74.01213348 -42.01071167 72.98606873 C-42.01139418 70.86839739 -42.009535 68.75072399 -42.00537109 66.63305664 C-42.00007424 63.42003539 -42.00528727 60.2071572 -42.01171875 56.99414062 C-42.01105699 54.93489553 -42.00977381 52.87565052 -42.0078125 50.81640625 C-42.00983673 49.86496231 -42.01186096 48.91351837 -42.01394653 47.9332428 C-41.98220038 38.6982049 -41.58599048 30.34598535 -37.875 21.8125 C-37.441875 20.678125 -37.00875 19.54375 -36.5625 18.375 C-29.17543686 2.78008894 -17.69807308 -5.48609271 0 0 Z " fill="#F5F6F7" transform="translate(71.875,21.1875)"/>
<path d="M0 0 C5.18039987 -0.63175608 7.66878358 0.74182681 11.6796875 3.7109375 C12.33324219 4.34902344 12.33324219 4.34902344 13 5 C13 5.66 13 6.32 13 7 C13.99 7.33 14.98 7.66 16 8 C16 8.99 16 9.98 16 11 C16.66 11 17.32 11 18 11 C17.84500763 15.12899681 17.00355321 17.35644198 14.12890625 20.2109375 C12.95297964 21.27996169 11.76366714 22.3344167 10.5625 23.375 C9.96373047 23.92027344 9.36496094 24.46554688 8.74804688 25.02734375 C4.30245536 29 4.30245536 29 2 29 C2 29.66 2 30.32 2 31 C-0.90600261 32.25664978 -2.79604584 33 -6 33 C-6 33.66 -6 34.32 -6 35 C-9.465 35.495 -9.465 35.495 -13 36 C-13 36.66 -13 37.32 -13 38 C-24.72992504 44.80907844 -44.3092942 43.31061891 -57 40 C-58.485 39.01 -58.485 39.01 -60 38 C-62.76750228 37.6437744 -62.76750228 37.6437744 -65.8125 37.6875 C-67.33810547 37.66236328 -67.33810547 37.66236328 -68.89453125 37.63671875 C-77.34375435 38.62511843 -82.7677262 44.80634906 -88 51 C-94.21514664 59.82317269 -95.37908075 69.44805408 -96.71191406 79.87255859 C-97.44993237 85.32263614 -98.66734409 90.66937635 -100 96 C-107.59 96 -115.18 96 -123 96 C-123.23677853 85.10818761 -122.52097949 75.34287724 -119 65 C-118.67074284 63.19046906 -118.36008275 61.37750882 -118.0625 59.5625 C-117.27600491 54.95678477 -116.04765373 51.18838263 -114 47 C-113.34 47 -112.68 47 -112 47 C-111.835 46.05125 -111.67 45.1025 -111.5 44.125 C-109.2118774 36.08388345 -102.33726181 30.04100371 -96 25 C-95.12601563 23.78183594 -95.12601563 23.78183594 -94.234375 22.5390625 C-91.54015135 19.47744471 -89.31391345 18.5652325 -85.5 17.1875 C-83.81390625 16.55908203 -83.81390625 16.55908203 -82.09375 15.91796875 C-79 15 -79 15 -75 15 C-75 14.34 -75 13.68 -75 13 C-73.35 12.67 -71.7 12.34 -70 12 C-70 11.34 -70 10.68 -70 10 C-68.58566794 9.7763663 -67.16832382 9.57173524 -65.75 9.375 C-64.56664063 9.20097656 -64.56664063 9.20097656 -63.359375 9.0234375 C-60.67847541 8.99680605 -59.27305911 9.63407916 -57 11 C-57 11.66 -57 12.32 -57 13 C-56.4225 13.28875 -55.845 13.5775 -55.25 13.875 C-53.16666667 14.91666667 -51.08333333 15.95833333 -49 17 C-49 17.66 -49 18.32 -49 19 C-32.60212546 19.86792535 -32.60212546 19.86792535 -17 16 C-17 15.34 -17 14.68 -17 14 C-16.278125 13.79375 -15.55625 13.5875 -14.8125 13.375 C-11.17283366 11.59560757 -9.4639083 9.17714491 -7 6 C-4.84085639 3.59172444 -4.17642911 3.0588097 -1 2 C-0.67 1.34 -0.34 0.68 0 0 Z " fill="#F5F7F8" transform="translate(175,163)"/>
<path d="M0 0 C4.65027938 0.26868281 8.08011351 1.41951574 12.1875 3.5625 C12.1875 4.2225 12.1875 4.8825 12.1875 5.5625 C12.75339844 5.68367187 13.31929687 5.80484375 13.90234375 5.9296875 C15.00255859 6.18105469 15.00255859 6.18105469 16.125 6.4375 C16.85589844 6.59992188 17.58679688 6.76234375 18.33984375 6.9296875 C20.1875 7.5625 20.1875 7.5625 21.1875 9.5625 C23.06763106 10.68474855 23.06763106 10.68474855 25.25 11.6875 C25.98347656 12.04070312 26.71695313 12.39390625 27.47265625 12.7578125 C28.03855469 13.02335938 28.60445312 13.28890625 29.1875 13.5625 C29.1875 14.2225 29.1875 14.8825 29.1875 15.5625 C30.21875 15.665625 31.25 15.76875 32.3125 15.875 C36.25053795 16.57368415 38.66068699 17.73127017 42.1875 19.5625 C44.94601159 20.58522734 47.71891282 21.55191713 50.50390625 22.5 C53.31328512 23.61230139 55.71210986 24.82798367 58.1875 26.5625 C59.21686797 29.71922845 59.33687167 31.81564165 58.6875 35.0625 C56.46410789 38.76815351 53.95187778 41.40013796 50.1875 43.5625 C43.38075842 45.23897524 37.28367752 42.41332206 31.1875 39.5625 C31.1875 38.9025 31.1875 38.2425 31.1875 37.5625 C27.8875 36.9025 24.5875 36.2425 21.1875 35.5625 C21.1875 34.9025 21.1875 34.2425 21.1875 33.5625 C20.65511719 33.45808594 20.12273437 33.35367188 19.57421875 33.24609375 C16.51906957 32.37105102 13.84357262 31.04159099 11 29.625 C9.93394531 29.10035156 8.86789063 28.57570312 7.76953125 28.03515625 C5.1875 26.5625 5.1875 26.5625 4.1875 24.5625 C3.1975 24.2325 2.2075 23.9025 1.1875 23.5625 C-0.05346872 22.09293178 -1.29003507 20.61848085 -2.47265625 19.1015625 C-3.90617744 17.326118 -3.90617744 17.326118 -6.625 15.625 C-8.8125 13.5625 -8.8125 13.5625 -9.375 10.1875 C-8.39362949 3.8631123 -6.7094824 0.22467064 0 0 Z " fill="#F4F6F7" transform="translate(191.8125,147.4375)"/>
<path d="M0 0 C3.01187134 -0.36076355 3.01187134 -0.36076355 6.92822266 -0.34057617 C7.64052536 -0.34101425 8.35282806 -0.34145233 9.0867157 -0.34190369 C11.44610812 -0.3398101 13.80479391 -0.31645325 16.1640625 -0.29296875 C17.79787813 -0.2873748 19.43169878 -0.28310375 21.06552124 -0.28010559 C25.36960702 -0.26864094 29.67338998 -0.23916008 33.97735596 -0.20599365 C38.36767479 -0.17532751 42.75804247 -0.16160767 47.1484375 -0.14648438 C55.7657641 -0.11429171 64.3828444 -0.06307608 73 0 C74.87505851 5.28290293 76.13522687 9.91866992 74.125 15.375 C73 17 73 17 71 18 C63.43846158 19.10715182 55.95232725 19.16109003 48.3203125 19.16796875 C46.38573685 19.17296135 46.38573685 19.17296135 44.41207886 19.17805481 C41.70081746 19.18400125 38.98958776 19.18589894 36.27832031 19.18530273 C32.80480349 19.18520039 29.33148778 19.19894586 25.85801888 19.21607494 C22.53294672 19.22984283 19.20791282 19.2292821 15.8828125 19.23046875 C14.63597687 19.23765427 13.38914124 19.24483978 12.10452271 19.25224304 C10.37659988 19.2476281 10.37659988 19.2476281 8.61376953 19.24291992 C7.09228806 19.24505745 7.09228806 19.24505745 5.54006958 19.24723816 C3 19 3 19 0 17 C-1.96897371 13.96121724 -2.27162993 11.52266126 -2.25 7.9375 C-2.25515625 7.08027344 -2.2603125 6.22304687 -2.265625 5.33984375 C-2 3 -2 3 0 0 Z " fill="#F3F4F4" transform="translate(9,125)"/>
<path d="M0 0 C22.44 0 44.88 0 68 0 C68.9230348 3.69213922 69.10346196 6.48149954 69.0625 10.25 C69.05347656 11.32765625 69.04445313 12.4053125 69.03515625 13.515625 C69.02355469 14.33546875 69.01195312 15.1553125 69 16 C67.68 16.66 66.36 17.32 65 18 C65 18.66 65 19.32 65 20 C57.44572087 20.11626916 49.89153547 20.20490421 42.33656311 20.25906086 C38.82773041 20.28506471 35.31951352 20.32028972 31.81103516 20.37719727 C27.76979946 20.4423298 23.72920229 20.46625618 19.6875 20.48828125 C18.4382373 20.51408768 17.18897461 20.5398941 15.90185547 20.56648254 C8.75295773 20.56876932 3.39768338 20.02416359 -2 15 C-3.26237731 12.47524538 -3.09856404 10.68799534 -3.0625 7.875 C-3.05347656 6.96492187 -3.04445312 6.05484375 -3.03515625 5.1171875 C-3.02355469 4.41851562 -3.01195312 3.71984375 -3 3 C-2.01 2.67 -1.02 2.34 0 2 C0 1.34 0 0.68 0 0 Z " fill="#EFF0F2" transform="translate(192,125)"/>
<path d="M0 0 C2.265625 1.18359375 2.265625 1.18359375 4 3 C4.53125 5.59375 4.53125 5.59375 4.5 8.5 C4.51546875 9.93859375 4.51546875 9.93859375 4.53125 11.40625 C4 14 4 14 2.09375 15.84375 C0 17 0 17 -2 17 C-2.495 18.485 -2.495 18.485 -3 20 C-5.1171875 21.39453125 -5.1171875 21.39453125 -7.875 22.8125 C-8.88046875 23.3384375 -9.8859375 23.864375 -10.921875 24.40625 C-11.93765625 24.9321875 -12.9534375 25.458125 -14 26 C-15.71072747 26.93312408 -17.4190947 27.8705891 -19.125 28.8125 C-20.02605469 29.29589844 -20.92710938 29.77929688 -21.85546875 30.27734375 C-24.28268952 31.6070386 -26.66662757 32.97564886 -29.05078125 34.37890625 C-43.027322 42.43866952 -43.027322 42.43866952 -51.4609375 41.68359375 C-55.71930183 40.53711105 -58.65476162 38.78907561 -61 35 C-61.77668932 31.92222368 -61.53281499 30.25017146 -61 27 C-58.86768354 24.2279886 -56.62816647 23.31836263 -53.375 22.1875 C-48.70360508 20.42974232 -44.92486603 18.11550976 -40.91015625 15.171875 C-39 14 -39 14 -36 14 C-36 13.34 -36 12.68 -36 12 C-30.73054456 9.2680897 -25.53107838 6.70981528 -19.921875 4.7578125 C-17.86155373 3.9454094 -16.04602313 2.91132523 -14.125 1.8125 C-9.61133889 -0.50677251 -4.98103343 -0.94029713 0 0 Z " fill="#F3F4F4" transform="translate(84,149)"/>
<path d="M0 0 C1.26521484 0.02255859 2.53042969 0.04511719 3.83398438 0.06835938 C6.95302619 0.12720922 10.06965902 0.2093863 13.1875 0.3125 C13.1875 0.9725 13.1875 1.6325 13.1875 2.3125 C13.785625 2.43625 14.38375 2.56 15 2.6875 C17.1875 3.3125 17.1875 3.3125 20.1875 5.3125 C19.8575 7.6225 19.5275 9.9325 19.1875 12.3125 C18.5275 12.3125 17.8675 12.3125 17.1875 12.3125 C17.1875 12.9725 17.1875 13.6325 17.1875 14.3125 C15.02577513 16.12367489 12.81375534 17.84243304 10.55859375 19.53515625 C8.51778957 22.18064315 8.7035075 24.51737742 8.5625 27.8125 C8.26624016 34.07627953 8.26624016 34.07627953 7.1875 37.3125 C2.5675 37.3125 -2.0525 37.3125 -6.8125 37.3125 C-7.1425 32.0325 -7.4725 26.7525 -7.8125 21.3125 C-8.4725 21.3125 -9.1325 21.3125 -9.8125 21.3125 C-11.17426922 19.66898543 -12.50212066 17.99727344 -13.8125 16.3125 C-14.72 15.508125 -15.6275 14.70375 -16.5625 13.875 C-18.8125 11.3125 -18.8125 11.3125 -19.4375 8.3125 C-18.8019095 5.26166561 -18.03637827 3.50145695 -15.76953125 1.34228516 C-11.09020544 -1.11996488 -5.13377921 -0.17263096 0 0 Z " fill="#F7F8F9" transform="translate(135.8125,127.6875)"/>
<path d="M0 0 C3.1875 1.9375 3.1875 1.9375 5 5 C5.37748199 8.05046253 5.29943493 10.94576369 5 14 C4.34 14 3.68 14 3 14 C2.855625 15.11375 2.71125 16.2275 2.5625 17.375 C2 21 2 21 1 23 C0.01 23.4640625 0.01 23.4640625 -1 23.9375 C-3.34608221 24.8891846 -3.34608221 24.8891846 -4 28 C-7.66584315 29.9572984 -10.88418018 30.29675069 -15 30.3125 C-16.010625 30.32925781 -17.02125 30.34601563 -18.0625 30.36328125 C-22.37051607 29.83050799 -24.9724857 28.0275143 -28 25 C-28.89673669 19.88025913 -28.35070025 15.12459824 -25.47265625 10.69921875 C-18.46140591 2.60931451 -10.6884466 -1.48626328 0 0 Z " fill="#ECEDEF" transform="translate(186,90)"/>
<path d="M0 0 C8.86636675 -1.68534244 16.12412559 -0.00058294 23.5546875 4.953125 C28.09798153 8.75613789 29.62508928 12.02924005 30.359375 17.84765625 C30.70600201 25.15570894 30.70600201 25.15570894 28.484375 27.8125 C24.94322172 29.50512672 21.58302864 29.31955664 17.75 29.1875 C17.00492188 29.17396484 16.25984375 29.16042969 15.4921875 29.14648438 C13.66114584 29.11127204 11.83047831 29.05746851 10 29 C10 28.34 10 27.68 10 27 C9.2575 26.773125 8.515 26.54625 7.75 26.3125 C2.67413664 23.88992885 -0.08983251 19.15745223 -2 14 C-2.89993707 4.3499056 -2.89993707 4.3499056 0 0 Z " fill="#EBEDEE" transform="translate(83,90)"/>
<path d="M0 0 C2.94956528 1.36944102 5.52468811 2.87830409 8 5 C8 5.66 8 6.32 8 7 C8.99 7.33 9.98 7.66 11 8 C15 12.45714286 15 12.45714286 15 15 C15.66 15 16.32 15 17 15 C16.91621094 15.56847656 16.83242187 16.13695313 16.74609375 16.72265625 C15.99947187 22.38375125 15.99292322 27.34552671 17.5289917 32.91960144 C18.03693256 35.1631276 18.14072974 37.17472402 18.16113281 39.47387695 C18.17074036 40.35191483 18.1803479 41.2299527 18.19024658 42.13459778 C18.19449646 43.07631332 18.19874634 44.01802887 18.203125 44.98828125 C18.20882507 45.96484177 18.21452515 46.94140228 18.22039795 47.94755554 C18.22983651 50.01279623 18.23637738 52.0780519 18.24023438 54.14331055 C18.24993212 57.29047143 18.2809634 60.43697689 18.3125 63.58398438 C18.31903135 65.59374614 18.3242813 67.60351255 18.328125 69.61328125 C18.3404718 70.5489241 18.3528186 71.48456696 18.36553955 72.44856262 C18.34655348 78.0631834 17.709465 82.04413768 15 87 C11.76085769 88.787113 8.50672895 87.71728547 5 87 C5 88.32 5 89.64 5 91 C2 90 2 90 0 88 C-1.134375 87.855625 -2.26875 87.71125 -3.4375 87.5625 C-7 87 -7 87 -8.70137024 85.79020691 C-10.46322309 83.36143065 -10.36185457 81.78025814 -10.34057617 78.79418945 C-10.34034958 77.73331619 -10.34012299 76.67244293 -10.33988953 75.579422 C-10.32440567 74.43559555 -10.30892181 73.2917691 -10.29296875 72.11328125 C-10.28872391 70.94113571 -10.28447906 69.76899017 -10.28010559 68.56132507 C-10.26329072 64.81148466 -10.22563232 61.06217843 -10.1875 57.3125 C-10.17245684 54.77279421 -10.1587678 52.23308001 -10.14648438 49.69335938 C-10.11337796 43.46205681 -10.06315028 37.23106656 -10 31 C-9.67 31 -9.34 31 -9 31 C-7.67286898 42.22102166 -7.66382389 53.50767774 -7.44775391 64.79077148 C-7.39618356 67.41399869 -7.33896261 70.03705813 -7.28125 72.66015625 C-7.26767456 73.46840347 -7.25409912 74.2766507 -7.2401123 75.10939026 C-7.24194195 79.18680216 -7.24194195 79.18680216 -6 83 C0.6 83.33 7.2 83.66 14 84 C14.0231087 78.23822962 14.04297576 72.47662376 14.05493164 66.71484375 C14.05992238 64.75976004 14.06671734 62.80468 14.07543945 60.84960938 C14.81205513 42.56832508 14.81205513 42.56832508 11 25 C10.875 21.6875 10.875 21.6875 11 19 C10.34 19 9.68 19 9 19 C8.34 15.7 7.68 12.4 7 9 C6.34 9 5.68 9 5 9 C4.67 7.68 4.34 6.36 4 5 C3.34 5 2.68 5 2 5 C1.34 3.35 0.68 1.7 0 0 Z " fill="#212023" transform="translate(226,26)"/>
<path d="M0 0 C0.6953125 1.75 0.6953125 1.75 1 4 C-4.7086761 13.07714958 -13.80437057 18.41832495 -23.9375 21.1875 C-49.30691744 26.72123842 -77.60935021 24.18803601 -103.43701172 24.18530273 C-108.52917234 24.1851999 -113.6211973 24.19901854 -118.7133255 24.21607494 C-122.68203354 24.22721448 -126.65070847 24.22922159 -130.61943054 24.22869301 C-132.49794496 24.22986373 -134.37646049 24.23423375 -136.25495911 24.24202538 C-154.14420452 24.3094862 -154.14420452 24.3094862 -163 22 C-163 21.67 -163 21.34 -163 21 C-122.08 21 -81.16 21 -39 21 C-39 20.34 -39 19.68 -39 19 C-38.16597656 18.87882812 -37.33195312 18.75765625 -36.47265625 18.6328125 C-23.93200974 17.41769626 -23.93200974 17.41769626 -13 12 C-12.01 12 -11.02 12 -10 12 C-9.6596875 11.1646875 -9.6596875 11.1646875 -9.3125 10.3125 C-7.04399551 6.31561114 -4.38100054 3.46033351 0 2 C0 1.34 0 0.68 0 0 Z " fill="#0B0C0F" transform="translate(253,237)"/>
<path d="M0 0 C0.75 1.6875 0.75 1.6875 1 4 C-0.875 6.5625 -0.875 6.5625 -3 9 C-3.33 9.99 -3.66 10.98 -4 12 C-3.01 12.495 -3.01 12.495 -2 13 C-5.63 13 -9.26 13 -13 13 C-13 13.66 -13 14.32 -13 15 C-16.87684087 16.19287411 -19.91621923 17 -24 17 C-24 16.01 -24 15.02 -24 14 C-26.83359844 13.94550772 -29.66612485 13.90609267 -32.5 13.875 C-33.29148438 13.85824219 -34.08296875 13.84148437 -34.8984375 13.82421875 C-40.27998079 13.78010774 -44.82999927 14.49405942 -50 16 C-50 15.34 -50 14.68 -50 14 C-51.00160156 14.01160156 -52.00320312 14.02320313 -53.03515625 14.03515625 C-54.37760228 14.04454398 -55.72005036 14.05364312 -57.0625 14.0625 C-59.02896484 14.07990234 -59.02896484 14.07990234 -61.03515625 14.09765625 C-64.8163519 14.00452335 -68.27920707 13.61448726 -72 13 C-71.34 12.01 -70.68 11.02 -70 10 C-67.32980347 9.60127258 -67.32980347 9.60127258 -63.89794922 9.56762695 C-62.61677216 9.54783279 -61.33559509 9.52803864 -60.01559448 9.50764465 C-58.61196031 9.50087434 -57.20832454 9.49442754 -55.8046875 9.48828125 C-54.37263436 9.47144159 -52.94059607 9.45329232 -51.50857544 9.43388367 C-47.73733153 9.38629942 -43.96614779 9.356545 -40.19470215 9.33044434 C-36.34712842 9.30068096 -32.49976222 9.25413629 -28.65234375 9.20898438 C-21.10166528 9.12285564 -13.55097187 9.05555341 -6 9 C-5.67 8.01 -5.34 7.02 -5 6 C-4.34 6 -3.68 6 -3 6 C-2.814375 4.7934375 -2.814375 4.7934375 -2.625 3.5625 C-2.41875 2.716875 -2.2125 1.87125 -2 1 C-1.34 0.67 -0.68 0.34 0 0 Z " fill="#030304" transform="translate(87,135)"/>
<path d="M0 0 C0 0.66 0 1.32 0 2 C0.99 2.33 1.98 2.66 3 3 C3 3.66 3 4.32 3 5 C1.948125 4.5875 0.89625 4.175 -0.1875 3.75 C-3.93353369 2.60017286 -3.93353369 2.60017286 -6.75 4.4375 C-11.56329592 9.91930924 -12.57097272 15.90258434 -13.1875 22.9375 C-13.26935547 23.79069824 -13.35121094 24.64389648 -13.43554688 25.52294922 C-14.12244955 33.54787733 -14.12521938 41.55340723 -13.92651367 49.60131836 C-13.79170972 57.12542318 -14.06685494 64.47891435 -17.75 71.1875 C-23.138725 74.19275048 -29.10721634 73.41173959 -35 72 C-37.43359375 69.93359375 -37.43359375 69.93359375 -39 68 C-36.23434618 67.07811539 -34.61716298 66.88214778 -31.76953125 66.90234375 C-30.56586914 66.90717773 -30.56586914 66.90717773 -29.33789062 66.91210938 C-28.08782227 66.92467773 -28.08782227 66.92467773 -26.8125 66.9375 C-25.96751953 66.94201172 -25.12253906 66.94652344 -24.25195312 66.95117188 C-22.16793845 66.96294597 -20.08396023 66.9808811 -18 67 C-17.99635437 66.44226898 -17.99270874 65.88453796 -17.98895264 65.30990601 C-17.94671412 59.43569198 -17.87708903 53.5622296 -17.79248047 47.68847656 C-17.76448249 45.50463426 -17.74316418 43.32069461 -17.72900391 41.13671875 C-17.52593381 11.56971313 -17.52593381 11.56971313 -9 0 C-5.93109813 -1.53445094 -3.29905734 -0.54984289 0 0 Z " fill="#161719" transform="translate(69,42)"/>
<path d="M0 0 C1.485 0.495 1.485 0.495 3 1 C4.1875 3.5625 4.1875 3.5625 5 6 C5.66 6 6.32 6 7 6 C7 6.99 7 7.98 7 9 C7.66 9.33 8.32 9.66 9 10 C8.34 10 7.68 10 7 10 C6.86980469 10.57105469 6.73960937 11.14210938 6.60546875 11.73046875 C4.44171813 19.84104365 0.44904327 27.10294857 -6.6875 31.75 C-7.450625 32.1625 -8.21375 32.575 -9 33 C-9.45632812 33.53109375 -9.91265625 34.0621875 -10.3828125 34.609375 C-12 36 -12 36 -13.98046875 36.03125 C-19.60733711 34.67681797 -24.56057997 32.82072335 -29 29 C-30.5 26.1875 -30.5 26.1875 -31 24 C-30.236875 24.639375 -29.47375 25.27875 -28.6875 25.9375 C-24.76006263 28.95157984 -21.94396746 29.13701738 -17.125 29.125 C-16.09632813 29.12757812 -15.06765625 29.13015625 -14.0078125 29.1328125 C-11.225352 29.00995061 -8.70760126 28.62944236 -6 28 C-5.67 26.68 -5.34 25.36 -5 24 C-3.68 23.67 -2.36 23.34 -1 23 C-0.34 20.03 0.32 17.06 1 14 C1.66 14 2.32 14 3 14 C2.58846263 9.02906176 2.20399168 4.55491614 0 0 Z " fill="#16181A" transform="translate(188,90)"/>
<path d="M0 0 C4.57325171 1.81427122 7.48606787 5.40716476 10.7578125 8.92382812 C13.90712031 12.20140831 16.90252571 14.092854 21 16 C21.639375 16.721875 22.27875 17.44375 22.9375 18.1875 C25.0139112 20.38304684 25.0139112 20.38304684 28.75 20.25 C29.8225 20.1675 30.895 20.085 32 20 C32.04898438 19.37351563 32.09796875 18.74703125 32.1484375 18.1015625 C32.22320312 17.28429687 32.29796875 16.46703125 32.375 15.625 C32.44460937 14.81289062 32.51421875 14.00078125 32.5859375 13.1640625 C33 11 33 11 35 9 C35 15.27 35 21.54 35 28 C37.31 28.33 39.62 28.66 42 29 C42 29.33 42 29.66 42 30 C38.7 30 35.4 30 32 30 C30.90341064 26.71023192 31.20046862 25.28696233 32 22 C31.01 22 30.02 22 29 22 C28.67 23.32 28.34 24.64 28 26 C22.76803363 24.19587366 18.38762752 22.40041133 14 19 C14 18.34 14 17.68 14 17 C13.43667969 16.78085938 12.87335937 16.56171875 12.29296875 16.3359375 C9.2604836 14.56914036 7.5188121 12.34551046 5.3125 9.625 C4.13107422 8.19027344 4.13107422 8.19027344 2.92578125 6.7265625 C1.22486632 4.31837057 0.40109673 2.86886137 0 0 Z " fill="#15171B" transform="translate(17,233)"/>
<path d="M0 0 C0.33 0 0.66 0 1 0 C2.32713102 11.22102166 2.33617611 22.50767774 2.55224609 33.79077148 C2.60381644 36.41399869 2.66103739 39.03705813 2.71875 41.66015625 C2.73232544 42.46840347 2.74590088 43.2766507 2.7598877 44.10939026 C2.75805805 48.18680216 2.75805805 48.18680216 4 52 C9.94 52.33 15.88 52.66 22 53 C21.01 54.32 20.02 55.64 19 57 C17.68 56.67 16.36 56.34 15 56 C15 57.32 15 58.64 15 60 C12 59 12 59 10 57 C8.865625 56.855625 7.73125 56.71125 6.5625 56.5625 C3 56 3 56 1.29862976 54.79020691 C-0.46322309 52.36143065 -0.36185457 50.78025814 -0.34057617 47.79418945 C-0.34034958 46.73331619 -0.34012299 45.67244293 -0.33988953 44.579422 C-0.32440567 43.43559555 -0.30892181 42.2917691 -0.29296875 41.11328125 C-0.28872391 39.94113571 -0.28447906 38.76899017 -0.28010559 37.56132507 C-0.26329072 33.81148466 -0.22563232 30.06217843 -0.1875 26.3125 C-0.17245684 23.77279421 -0.1587678 21.23308001 -0.14648438 18.69335938 C-0.11337796 12.46205681 -0.06315028 6.23106656 0 0 Z " fill="#212328" transform="translate(216,57)"/>
<path d="M0 0 C4.32834 3.55542214 6.61830834 7.63704217 8 13 C8.74758296 22.12598227 8.07238591 30.84443038 6.4375 39.84765625 C5.80729536 44.38850575 5.94808349 48.84578257 6.125 53.41796875 C6 56 6 56 4 58 C3.99413376 57.42894531 3.98826752 56.85789063 3.98222351 56.26953125 C3.91804057 50.29899792 3.833558 44.32899125 3.73754883 38.35888672 C3.70439742 36.13402268 3.67633534 33.90907652 3.65356445 31.68408203 C3.61983855 28.4765337 3.56751288 25.26973134 3.51171875 22.0625 C3.50532883 21.07572266 3.4989389 20.08894531 3.49235535 19.07226562 C3.3647843 13.01168351 2.34380239 8.58178117 0 3 C0 2.01 0 1.02 0 0 Z " fill="#18191F" transform="translate(260,40)"/>
<path d="M0 0 C0.54220184 0.48764832 1.08440369 0.97529663 1.64303589 1.47772217 C4.56229524 3.36316615 6.25533698 3.36893151 9.71142578 3.35644531 C10.86007111 3.35944641 12.00871643 3.36244751 13.19216919 3.36553955 C15.04997513 3.34701935 15.04997513 3.34701935 16.9453125 3.328125 C18.22550262 3.32625183 19.50569275 3.32437866 20.82467651 3.32244873 C23.53656638 3.31784883 26.24815882 3.30344623 28.95996094 3.28125 C32.40935138 3.25313794 35.85850646 3.24205431 39.30800056 3.2375679 C42.62463982 3.23236603 45.94120089 3.21782636 49.2578125 3.203125 C50.48420441 3.19887512 51.71059631 3.19462524 52.97415161 3.19024658 C59.70688195 3.13484463 66.31639262 2.82981134 73 2 C73 2.66 73 3.32 73 4 C69.29297261 4.85077922 65.83230331 5.14341133 62.03222656 5.18945312 C60.26579803 5.21452942 60.26579803 5.21452942 58.46368408 5.2401123 C57.20207458 5.25368774 55.94046509 5.26726318 54.640625 5.28125 C52.65473653 5.30936976 50.66884811 5.33749482 48.68296432 5.36594391 C44.49783576 5.42441279 40.31260078 5.47467491 36.12738037 5.52606201 C32.67030215 5.56877887 29.21327309 5.61333387 25.75628662 5.66296387 C23.16442768 5.69977238 20.57250193 5.73217486 17.98052979 5.7598877 C16.81551941 5.77660522 15.65050903 5.79332275 14.45019531 5.81054688 C12.90395477 5.82933899 12.90395477 5.82933899 11.32647705 5.84851074 C9.03955444 5.7405568 9.03955444 5.7405568 8 7 C13.94 7.66 19.88 8.32 26 9 C26.33 10.32 26.66 11.64 27 13 C23.625 13.125 23.625 13.125 20 13 C19.34 12.34 18.68 11.68 18 11 C16.7315625 11.061875 16.7315625 11.061875 15.4375 11.125 C10.1688424 10.93341245 5.38719244 8.87075787 1.23046875 5.61328125 C0 4 0 4 0 0 Z " fill="#505254" transform="translate(8,140)"/>
<path d="M0 0 C1.32 0 2.64 0 4 0 C3.06533318 15.8893359 3.06533318 15.8893359 -0.9375 20.5625 C-4.17882124 23.1883805 -6.70985961 23.32093404 -10.8125 23.0625 C-15.62057878 22.37942122 -15.62057878 22.37942122 -18 20 C-17.67 18.68 -17.34 17.36 -17 16 C-12.05 16.33 -7.1 16.66 -2 17 C-1.93941406 15.85660156 -1.87882812 14.71320313 -1.81640625 13.53515625 C-1.73201572 12.04425695 -1.64736698 10.55337225 -1.5625 9.0625 C-1.52318359 8.30775391 -1.48386719 7.55300781 -1.44335938 6.77539062 C-1.11328125 1.11328125 -1.11328125 1.11328125 0 0 Z " fill="#171719" transform="translate(145,148)"/>
<path d="M0 0 C1.65 0.66 3.3 1.32 5 2 C5 2.66 5 3.32 5 4 C5.66 4 6.32 4 7 4 C7 4.66 7 5.32 7 6 C7.66 6 8.32 6 9 6 C10.75 8.3125 10.75 8.3125 12 12 C11.06190299 16.98897048 9.82968127 21.64366911 5.64453125 24.74609375 C0.88368902 27.00345026 -4.16795079 28.6384652 -9.42578125 27.453125 C-11.625 26.625 -11.625 26.625 -15 25 C-15 24.34 -15 23.68 -15 23 C-13.12054688 23.03480469 -13.12054688 23.03480469 -11.203125 23.0703125 C-9.5520893 23.08907427 -7.90104715 23.10727403 -6.25 23.125 C-5.425 23.14175781 -4.6 23.15851563 -3.75 23.17578125 C-2.95078125 23.18222656 -2.1515625 23.18867187 -1.328125 23.1953125 C-0.22839355 23.21102295 -0.22839355 23.21102295 0.89355469 23.22705078 C3.29896076 22.96777544 4.91251494 22.19225925 7 21 C6.6725103 14.65347547 6.29617603 9.58916805 3 4 C3 3.34 3 2.68 3 2 C2.01 1.67 1.02 1.34 0 1 C0 0.67 0 0.34 0 0 Z " fill="#0A0A10" transform="translate(106,95)"/>
<path d="M0 0 C0.66 0.33 1.32 0.66 2 1 C2.71286796 5.09899078 2.60442704 7.03435585 0.359375 10.62109375 C-5.74958808 18.41567812 -5.74958808 18.41567812 -10 20 C-15.26194933 20.47835903 -17.60563795 19.69122173 -22 17 C-23.91977001 16.22535596 -25.85818903 15.49533154 -27.8125 14.8125 C-28.78832031 14.46832031 -29.76414063 14.12414062 -30.76953125 13.76953125 C-31.50558594 13.51558594 -32.24164063 13.26164063 -33 13 C-33 12.34 -33 11.68 -33 11 C-29.18255135 11.38953558 -26.2285496 11.89012039 -22.75 13.5625 C-18.05400731 15.77617161 -13.07416018 15.24774381 -8 15 C-7.731875 14.360625 -7.46375 13.72125 -7.1875 13.0625 C-6 11 -6 11 -3 10 C-2.26676204 7.98491642 -2.26676204 7.98491642 -2 6 C-1.34 6 -0.68 6 0 6 C0 4.02 0 2.04 0 0 Z " fill="#09090A" transform="translate(252,175)"/>
<path d="M0 0 C-0.72832031 0.71285156 -1.45664063 1.42570313 -2.20703125 2.16015625 C-4.83556057 4.83280075 -7.2847244 7.56151223 -9.6875 10.4375 C-10.45449219 11.34371094 -11.22148438 12.24992188 -12.01171875 13.18359375 C-14.06142983 16.08701553 -14.96135125 18.62794857 -16 22 C-16.66 22.66 -17.32 23.32 -18 24 C-18.66 24 -19.32 24 -20 24 C-20.66 26.31 -21.32 28.62 -22 31 C-24.0148732 24.85877689 -20.64473216 18.99137868 -17.875 13.5 C-14.41455983 7.50753044 -7.6933968 -2.5644656 0 0 Z " fill="#3D3A3B" transform="translate(102,204)"/>
<path d="M0 0 C-0.625 1.875 -0.625 1.875 -2 4 C-5 5.1875 -5 5.1875 -8 6 C-8.66 6.33 -9.32 6.66 -10 7 C-16.78759737 7.59202168 -23.3453661 6.60812093 -30.01953125 5.4375 C-32.73624338 5.03871657 -35.26054124 4.91898089 -38 5 C-38 4.34 -38 3.68 -38 3 C-39.32 3.33 -40.64 3.66 -42 4 C-41.67 3.34 -41.34 2.68 -41 2 C-40.11699219 2.08378906 -39.23398438 2.16757813 -38.32421875 2.25390625 C-27.82465054 3.14484705 -18.5097619 2.62171907 -8.23828125 0.41015625 C-5.46641 -0.09777827 -2.80986816 -0.1478878 0 0 Z " fill="#060707" transform="translate(158,203)"/>
<path d="M0 0 C0 0.66 0 1.32 0 2 C0.99 2.33 1.98 2.66 3 3 C3 3.66 3 4.32 3 5 C1.948125 4.5875 0.89625 4.175 -0.1875 3.75 C-3.93353369 2.60017286 -3.93353369 2.60017286 -6.75 4.4375 C-11.82803744 10.22082042 -12.55255944 16.41005784 -13.125 23.8125 C-13.2734375 25.50651042 -13.421875 27.20052083 -13.5703125 28.89453125 C-13.63895508 29.72549316 -13.70759766 30.55645508 -13.77832031 31.41259766 C-14.1382034 35.61308325 -14.56904438 39.80629812 -15 44 C-15.33 44 -15.66 44 -16 44 C-16.02710123 41.4374282 -16.04688771 38.87514635 -16.0625 36.3125 C-16.07087891 35.59126953 -16.07925781 34.87003906 -16.08789062 34.12695312 C-16.10543632 30.28444618 -15.93524221 26.73360474 -15 23 C-15.66 23 -16.32 23 -17 23 C-14.01933881 4.91993671 -14.01933881 4.91993671 -9.1015625 0.1640625 C-5.92737501 -1.59413057 -3.44091651 -0.72788619 0 0 Z " fill="#131314" transform="translate(69,42)"/>
<path d="M0 0 C0.33 0 0.66 0 1 0 C1.16781295 2.60409745 1.33429651 5.2082682 1.5 7.8125 C1.54769531 8.55048828 1.59539062 9.28847656 1.64453125 10.04882812 C1.83390613 13.03824588 2 16.00374574 2 19 C2.495 20.485 2.495 20.485 3 22 C3.37881434 27.19768513 3.69155985 32.36453582 1 37 C0.01 37.495 0.01 37.495 -1 38 C-0.98839844 36.73542969 -0.97679687 35.47085938 -0.96484375 34.16796875 C-0.95546434 32.50781398 -0.9463643 30.84765761 -0.9375 29.1875 C-0.92493164 27.93743164 -0.92493164 27.93743164 -0.91210938 26.66210938 C-0.90888672 25.85966797 -0.90566406 25.05722656 -0.90234375 24.23046875 C-0.89710693 23.49207764 -0.89187012 22.75368652 -0.88647461 21.99291992 C-0.92476787 19.78942591 -0.92476787 19.78942591 -2 17 C-15.2 17 -28.4 17 -42 17 C-42 16.67 -42 16.34 -42 16 C-30.78 16 -19.56 16 -8 16 C-8 15.34 -8 14.68 -8 14 C-5.625 13.375 -5.625 13.375 -3 13 C-2.34 13.66 -1.68 14.32 -1 15 C-0.67 10.05 -0.34 5.1 0 0 Z " fill="#121217" transform="translate(262,108)"/>
<path d="M0 0 C1.98684692 -0.36076355 1.98684692 -0.36076355 4.44970703 -0.34057617 C5.37051056 -0.34034958 6.29131409 -0.34012299 7.24002075 -0.33988953 C8.73382767 -0.31666374 8.73382767 -0.31666374 10.2578125 -0.29296875 C11.27600067 -0.28872391 12.29418884 -0.28447906 13.3432312 -0.28010559 C16.60408673 -0.26327579 19.86433041 -0.22561546 23.125 -0.1875 C25.33202234 -0.17245874 27.53905434 -0.15876937 29.74609375 -0.14648438 C35.16427223 -0.1133583 40.58209242 -0.06311653 46 0 C43.48889963 2.51110037 42.55492959 2.2929781 39.07421875 2.4140625 C38.05900146 2.45281494 37.04378418 2.49156738 35.99780273 2.53149414 C34.90540283 2.56235107 33.81300293 2.59320801 32.6875 2.625 C31.02086304 2.68192017 31.02086304 2.68192017 29.32055664 2.73999023 C18.8798449 3.06772558 8.44445256 3.0988434 -2 3 C-1.34 2.01 -0.68 1.02 0 0 Z " fill="#010101" transform="translate(17,145)"/>
<path d="M0 0 C1.07572266 -0.00322266 2.15144531 -0.00644531 3.25976562 -0.00976562 C8.36048714 0.02501921 12.23728452 0.17197127 16.9375 2.3125 C16.9375 2.9725 16.9375 3.6325 16.9375 4.3125 C6.0475 4.3125 -4.8425 4.3125 -16.0625 4.3125 C-18.01466435 8.21682869 -18.56889991 11.03463252 -19.0625 15.3125 C-21.0625 12.3125 -21.0625 12.3125 -20.8125 9.875 C-19.10018947 4.02460569 -19.10018947 4.02460569 -15.734375 1.71484375 C-10.47011471 -0.29565566 -5.58400846 -0.08394481 0 0 Z " fill="#1E2127" transform="translate(136.0625,124.6875)"/>
<path d="M0 0 C2.9719385 1.12451727 5.33440687 2.22293791 8 4 C8 4.66 8 5.32 8 6 C9.32 6.33 10.64 6.66 12 7 C12 7.66 12 8.32 12 9 C13.05767578 9.15275391 13.05767578 9.15275391 14.13671875 9.30859375 C17.41059645 10.09914812 19.88584467 11.40523734 22.8125 13.0625 C23.78832031 13.61035156 24.76414063 14.15820312 25.76953125 14.72265625 C26.50558594 15.14417969 27.24164063 15.56570312 28 16 C28 16.66 28 17.32 28 18 C30.31 18.33 32.62 18.66 35 19 C35 19.33 35 19.66 35 20 C31.7 20 28.4 20 25 20 C25 19.01 25 18.02 25 17 C24.2575 16.896875 23.515 16.79375 22.75 16.6875 C20 16 20 16 17.9375 14.375 C16.11896144 12.75646894 16.11896144 12.75646894 14 13.25 C13.34 13.4975 12.68 13.745 12 14 C10.66666667 14.33333333 9.33333333 14.66666667 8 15 C8.33 12.69 8.66 10.38 9 8 C8.443125 7.7525 7.88625 7.505 7.3125 7.25 C4.57589087 5.77075182 2.32349131 4.06532561 0 2 C0 1.34 0 0.68 0 0 Z " fill="#0B0B0C" transform="translate(185,165)"/>
<path d="M0 0 C0.56203125 0.31710938 1.1240625 0.63421875 1.703125 0.9609375 C4.15196317 2.06874525 6.08387855 2.38975399 8.75 2.625 C9.54921875 2.69976562 10.3484375 2.77453125 11.171875 2.8515625 C11.77515625 2.90054688 12.3784375 2.94953125 13 3 C13 3.33 13 3.66 13 4 C11.35 4 9.7 4 8 4 C8 4.66 8 5.32 8 6 C9.175625 5.9175 10.35125 5.835 11.5625 5.75 C15.63370403 5.73566477 17.89912525 6.79418968 21.2578125 8.9765625 C24.02948964 10.60476746 26.89060667 11.23851592 30 12 C29.01 12.495 29.01 12.495 28 13 C27.67 13.66 27.34 14.32 27 15 C25.68 14.67 24.36 14.34 23 14 C23 13.34 23 12.68 23 12 C21.63875 12.185625 21.63875 12.185625 20.25 12.375 C13.54591119 12.40241959 6.54549128 8.23834935 1.63671875 3.921875 C0 2 0 2 0 0 Z " fill="#212227" transform="translate(93,62)"/>
<path d="M0 0 C0.33 0 0.66 0 1 0 C1.99887295 8.16014759 2.21838369 16.25951053 2.24023438 24.46899414 C2.25002813 26.69389031 2.28119054 28.91789397 2.3125 31.14257812 C2.3190246 32.57811962 2.3242772 34.01366758 2.328125 35.44921875 C2.34214355 37.37254028 2.34214355 37.37254028 2.35644531 39.3347168 C1.94171367 43.59935118 0.97873654 46.22097189 -1 50 C-3.1875 50.9375 -3.1875 50.9375 -5 51 C-5 50.01 -5 49.02 -5 48 C-3.35 47.34 -1.7 46.68 0 46 C0 30.82 0 15.64 0 0 Z " fill="#010102" transform="translate(242,63)"/>
<path d="M0 0 C1.70893433 -0.01933594 1.70893433 -0.01933594 3.45239258 -0.0390625 C10.62351621 -0.04737022 17.31054501 0.63082403 24.3125 2.1875 C20.67633344 4.1664756 17.42824371 4.7126065 13.3125 5.1875 C13.3125 4.1975 13.3125 3.2075 13.3125 2.1875 C10.47890156 2.13300772 7.64637515 2.09359267 4.8125 2.0625 C3.62527344 2.03736328 3.62527344 2.03736328 2.4140625 2.01171875 C-2.96748079 1.96760774 -7.51749927 2.68155942 -12.6875 4.1875 C-12.6875 3.5275 -12.6875 2.8675 -12.6875 2.1875 C-17.6375 2.1875 -22.5875 2.1875 -27.6875 2.1875 C-27.6875 1.8575 -27.6875 1.5275 -27.6875 1.1875 C-18.46601465 0.23296547 -9.26384826 0.05049451 0 0 Z " fill="#101111" transform="translate(49.6875,146.8125)"/>
<path d="M0 0 C2.31188212 -0.08224087 4.62464858 -0.13974201 6.9375 -0.1875 C8.86916016 -0.23970703 8.86916016 -0.23970703 10.83984375 -0.29296875 C13.95405593 -0.22277891 16.34868538 0.3899986 19.25390625 1.49609375 C24.81548068 3.51224652 30.14361698 3.36742121 36 3.25 C37.54300781 3.24226562 37.54300781 3.24226562 39.1171875 3.234375 C45.14657474 3.17300719 51.02063815 2.77233424 57 2 C56.67 2.66 56.34 3.32 56 4 C43.18427525 7.03974731 28.78766367 7.33591226 16 4 C15.01 3.34 14.02 2.68 13 2 C9.56692835 1.75729175 9.56692835 1.75729175 5.8125 1.875 C4.54019531 1.89304688 3.26789063 1.91109375 1.95703125 1.9296875 C0.98121094 1.95289063 0.00539063 1.97609375 -1 2 C-0.67 1.34 -0.34 0.68 0 0 Z " fill="#A1A2A7" transform="translate(102,199)"/>
<path d="M0 0 C8.2875 3.4125 8.2875 3.4125 12 6 C12 6.66 12 7.32 12 8 C12.66 8 13.32 8 14 8 C15.62109375 9.609375 15.62109375 9.609375 17.4375 11.75 C18.03433594 12.44609375 18.63117188 13.1421875 19.24609375 13.859375 C20.89081098 15.86673589 22.46126108 17.91070312 24 20 C20.57751825 18.49410803 17.7304444 16.41056154 14.72265625 14.2265625 C10.37989792 11.13443979 5.62969706 8.63257284 1 6 C1.33 5.01 1.66 4.02 2 3 C1.34 2.67 0.68 2.34 0 2 C0 1.34 0 0.68 0 0 Z " fill="#2A292B" transform="translate(69,42)"/>
<path d="M0 0 C0.99 0 1.98 0 3 0 C2.69201674 1.48011371 2.378482 2.95907325 2.0625 4.4375 C1.88847656 5.26121094 1.71445312 6.08492187 1.53515625 6.93359375 C1 9 1 9 0 10 C-1.1173666 16.94345577 -1.19356572 24.02268064 -1.31640625 31.0390625 C-1.33718735 32.04593109 -1.35796844 33.05279968 -1.37937927 34.09017944 C-1.44413202 37.2683917 -1.50340993 40.44667794 -1.5625 43.625 C-1.60575608 45.7955802 -1.64937247 47.96615324 -1.69335938 50.13671875 C-1.79973582 55.42440373 -1.90163209 60.71216029 -2 66 C-2.33 66 -2.66 66 -3 66 C-3.07709161 59.33300324 -3.12902846 52.66612446 -3.16479492 45.9987793 C-3.17973082 43.73831895 -3.20008693 41.47788679 -3.22631836 39.2175293 C-3.37794003 25.80049788 -3.01984938 13.10871109 0 0 Z " fill="#989EA1" transform="translate(32,41)"/>
<path d="M0 0 C1.65902344 -0.0309375 1.65902344 -0.0309375 3.3515625 -0.0625 C4.94097656 -0.07023437 4.94097656 -0.07023437 6.5625 -0.078125 C7.53316406 -0.0874707 8.50382812 -0.09681641 9.50390625 -0.10644531 C12 0.25 12 0.25 15 3.25 C0.48 3.25 -14.04 3.25 -29 3.25 C-29 2.92 -29 2.59 -29 2.25 C-28.02417969 2.18941406 -27.04835938 2.12882812 -26.04296875 2.06640625 C-24.77066406 1.98261719 -23.49835938 1.89882813 -22.1875 1.8125 C-20.92292969 1.73128906 -19.65835938 1.65007813 -18.35546875 1.56640625 C-1.83452666 0.00855257 -1.83452666 0.00855257 0 0 Z " fill="#44444B" transform="translate(150,40.75)"/>
<path d="M0 0 C1.12646421 3.63504407 0.62170815 5.98996238 -0.390625 9.65625 C-1.87801251 15.37697118 -2.81327617 21.25772799 -3.5 27.125 C-3.665 28.07375 -3.83 29.0225 -4 30 C-4.66 30.33 -5.32 30.66 -6 31 C-6.33428238 20.19153631 -5.17976371 10.99508714 -1 1 C-0.67 0.67 -0.34 0.34 0 0 Z " fill="#050405" transform="translate(83,226)"/>
<path d="M0 0 C0.66 0 1.32 0 2 0 C1.99476318 0.56283691 1.98952637 1.12567383 1.98413086 1.70556641 C1.85468905 15.30327151 1.85468905 15.30327151 2.5625 28.875 C2.94045524 33.48714946 3.22313149 37.51518454 2 42 C1.01 42.66 0.02 43.32 -1 44 C-0.67 29.48 -0.34 14.96 0 0 Z " fill="#040404" transform="translate(52,65)"/>
<path d="M0 0 C-6.30319433 3.39402772 -11.76896774 4.30158961 -18.8125 4.1875 C-19.97555664 4.1865332 -19.97555664 4.1865332 -21.16210938 4.18554688 C-26.859313 4.140687 -26.859313 4.140687 -28 3 C-29.84891946 2.76636119 -31.70488031 2.58696365 -33.5625 2.4375 C-34.57441406 2.35371094 -35.58632812 2.26992187 -36.62890625 2.18359375 C-37.80259766 2.09271484 -37.80259766 2.09271484 -39 2 C-39 1.67 -39 1.34 -39 1 C-34.41019224 0.85640142 -29.82034873 0.71402534 -25.23046875 0.57275391 C-23.67088816 0.52458278 -22.11131764 0.47608477 -20.55175781 0.42724609 C-18.30276042 0.35687517 -16.05372879 0.28770195 -13.8046875 0.21875 C-13.1138205 0.19687622 -12.42295349 0.17500244 -11.71115112 0.15246582 C-7.80580218 0.03404068 -3.90707789 -0.02126301 0 0 Z " fill="#0E1011" transform="translate(255,147)"/>
<path d="M0 0 C3.5549955 1.4219982 4.36668882 2.63730051 6 6 C6.886875 6.825 7.77375 7.65 8.6875 8.5 C9.450625 9.325 10.21375 10.15 11 11 C10.8125 13.3125 10.8125 13.3125 10 15 C9.34 14.34 8.68 13.68 8 13 C7.34 13 6.68 13 6 13 C5.67 12.34 5.34 11.68 5 11 C4.34 11 3.68 11 3 11 C2.67 12.65 2.34 14.3 2 16 C1.34 15.67 0.68 15.34 0 15 C0.33 14.34 0.66 13.68 1 13 C1.17218202 8.52326748 0.85736786 4.39401026 0 0 Z " fill="#2E2F31" transform="translate(82,125)"/>
<path d="M0 0 C3.96 0.33 7.92 0.66 12 1 C11.67 1.66 11.34 2.32 11 3 C11.99 3.66 12.98 4.32 14 5 C12 7 12 7 9.46875 7.046875 C7.99921875 6.89992187 7.99921875 6.89992187 6.5 6.75 C5.5203125 6.66234375 4.540625 6.5746875 3.53125 6.484375 C1 6 1 6 -1 4 C-0.67 2.68 -0.34 1.36 0 0 Z " fill="#090C0E" transform="translate(128,164)"/>
<path d="M0 0 C-0.33 0.66 -0.66 1.32 -1 2 C-3.5625 2.625 -3.5625 2.625 -6 3 C-6 3.66 -6 4.32 -6 5 C-8.08095279 6.39818654 -10.14712323 7.68337637 -12.3125 8.9375 C-17.56447161 11.93640176 -17.56447161 11.93640176 -22 16 C-22 12.08612061 -20.87971156 11.38793515 -18.1875 8.625 C-14.27999675 4.8291397 -5.74699207 -2.87349604 0 0 Z M-26 16 C-25.01 16.33 -24.02 16.66 -23 17 C-23.99 17.66 -24.98 18.32 -26 19 C-26 18.01 -26 17.02 -26 16 Z " fill="#5E5E62" transform="translate(41,11)"/>
<path d="M0 0 C0.33 0 0.66 0 1 0 C1.71028829 8.66551717 -0.75298108 15.10892087 -5.54296875 22.32421875 C-6.02378906 22.87722656 -6.50460937 23.43023437 -7 24 C-7.66 24 -8.32 24 -9 24 C-3.1111401 5.93190712 -3.1111401 5.93190712 0 0 Z " fill="#0A0C10" transform="translate(263,213)"/>
<path d="M0 0 C1.26521484 0.02255859 2.53042969 0.04511719 3.83398438 0.06835938 C6.95302619 0.12720922 10.06965902 0.2093863 13.1875 0.3125 C13.1875 0.6425 13.1875 0.9725 13.1875 1.3125 C4.6075 1.6425 -3.9725 1.9725 -12.8125 2.3125 C-14.80080031 6.28910063 -16.21289964 9.19610191 -15.375 13.625 C-15.189375 14.181875 -15.00375 14.73875 -14.8125 15.3125 C-17.54956304 13.08863628 -18.70193111 11.8899153 -19.375 8.375 C-18.80182382 5.25437412 -18.081273 3.53429932 -15.77172852 1.34008789 C-11.08772783 -1.11660481 -5.13606804 -0.17270793 0 0 Z " fill="#B1B5BA" transform="translate(135.8125,127.6875)"/>
<path d="M0 0 C1.98 0.66 3.96 1.32 6 2 C2.25996908 4.49335395 -0.34903572 3.99335953 -4.625 3.75 C-11.1841055 3.52593347 -15.13666815 4.30459851 -20.30078125 8.6875 C-22 10 -22 10 -25 10 C-21.95419889 6.08397 -19.61207029 3.10105424 -15 1 C-12.27432715 0.9463339 -9.86919219 1.02251797 -7.1875 1.3125 C-6.49462891 1.37373047 -5.80175781 1.43496094 -5.08789062 1.49804688 C-3.39050178 1.65022656 -1.69498451 1.82303935 0 2 C0 1.34 0 0.68 0 0 Z " fill="#58585B" transform="translate(66,17)"/>
<path d="M0 0 C0.66 0.33 1.32 0.66 2 1 C-2.96506077 4.04249964 -8.09391289 6.74497165 -13.234375 9.4765625 C-15.83434211 10.7416136 -15.83434211 10.7416136 -17 12 C-18.92578125 11.94921875 -18.92578125 11.94921875 -21.3125 11.6875 C-22.48232422 11.56955078 -22.48232422 11.56955078 -23.67578125 11.44921875 C-26 11 -26 11 -30 9 C-25.71 9.33 -21.42 9.66 -17 10 C-16.34 8.68 -15.68 7.36 -15 6 C-12.61153117 4.92591281 -10.41833809 4.08173295 -7.9375 3.3125 C-3.63663396 2.21646727 -3.63663396 2.21646727 0 0 Z " fill="#0D0E11" transform="translate(62,184)"/>
<path d="M0 0 C3.93992484 1.49445425 4.87934829 3.46558048 7 7 C9.23725704 9.43369912 11.61477094 11.71234849 14 14 C15.33333333 15.33333333 16.66666667 16.66666667 18 18 C14.28820304 17.72148133 12.40963385 17.3527947 9.55078125 14.890625 C8.81214844 14.01921875 8.07351562 13.1478125 7.3125 12.25 C6.56613281 11.38890625 5.81976562 10.5278125 5.05078125 9.640625 C0 3.13714286 0 3.13714286 0 0 Z " fill="#0B0C10" transform="translate(17,233)"/>
<path d="M0 0 C0.66 0 1.32 0 2 0 C3.0245629 4.40562046 3.36208478 7.06319204 1 11 C-1.65137999 14.16212741 -4.1754507 16.64676234 -8.3203125 17.44921875 C-12.48916436 17.53864957 -15.3323167 17.05324031 -19 15 C-18.34 14.67 -17.68 14.34 -17 14 C-16.01 14.33 -15.02 14.66 -14 15 C-12.43881572 15.06740865 -10.8749748 15.08514456 -9.3125 15.0625 C-8.50425781 15.05347656 -7.69601563 15.04445312 -6.86328125 15.03515625 C-6.24839844 15.02355469 -5.63351563 15.01195312 -5 15 C-5 14.01 -5 13.02 -5 12 C-5.66 11.67 -6.32 11.34 -7 11 C-4 9 -4 9 0 9 C0.93380961 4.46859347 0.93380961 4.46859347 0 0 Z " fill="#B3B3BB" transform="translate(248,174)"/>
<path d="M0 0 C0.99 0 1.98 0 3 0 C3 2 3 2 0.875 4.5 C-2.14723148 7.12802738 -4.15589571 8.03897393 -8 9 C-9.3303125 9.3403125 -9.3303125 9.3403125 -10.6875 9.6875 C-13 10 -13 10 -16 9 C-14.68 8.67 -13.36 8.34 -12 8 C-12 7.34 -12 6.68 -12 6 C-8.535 5.505 -8.535 5.505 -5 5 C-5 4.34 -5 3.68 -5 3 C-3.35 2.67 -1.7 2.34 0 2 C0 1.34 0 0.68 0 0 Z " fill="#030304" transform="translate(175,194)"/>
<path d="M0 0 C1.98 1.65 3.96 3.3 6 5 C2.58337766 10.10070214 -0.06107964 13.73755415 -6 16 C-5.6875 14.0625 -5.6875 14.0625 -5 12 C-4.01 11.67 -3.02 11.34 -2 11 C-2 10.34 -2 9.68 -2 9 C-1.34 9 -0.68 9 0 9 C0 6.03 0 3.06 0 0 Z " fill="#111216" transform="translate(155,131)"/>
<path d="M0 0 C0.5775 0.61875 1.155 1.2375 1.75 1.875 C6.49576556 4.97800056 11.44494161 5.32665959 17 6 C17 6.33 17 6.66 17 7 C15.35 7.33 13.7 7.66 12 8 C15.465 9.485 15.465 9.485 19 11 C14.1853069 12.6048977 10.42019086 10.1219736 6 8 C1.34718101 4.96142433 1.34718101 4.96142433 0.1875 1.75 C0.125625 1.1725 0.06375 0.595 0 0 Z " fill="#18191D" transform="translate(157,114)"/>
<path d="M0 0 C0.66 0.33 1.32 0.66 2 1 C3.73369437 6.20108311 3.62744895 11.80392867 2.125 17.0625 C1 19 1 19 -1 20 C-0.67 13.4 -0.34 6.8 0 0 Z " fill="#040507" transform="translate(262,126)"/>
<path d="M0 0 C2.51887427 0.03825393 4.98950444 0.14436589 7.5 0.3125 C8.20253906 0.34794922 8.90507812 0.38339844 9.62890625 0.41992188 C11.42594233 0.53591553 13.21525847 0.76022748 15 1 C15.33 1.66 15.66 2.32 16 3 C3.625 3.99 3.625 3.99 -9 5 C-6.53473114 2.53473114 -4.28518427 2.04846307 -1 1 C-0.67 0.67 -0.34 0.34 0 0 Z " fill="#14161E" transform="translate(197,121)"/>
<path d="M0 0 C2.475 0.99 2.475 0.99 5 2 C5 2.66 5 3.32 5 4 C5.66 4 6.32 4 7 4 C7 4.66 7 5.32 7 6 C7.66 6 8.32 6 9 6 C9.99 7.98 10.98 9.96 12 12 C11.01 12.33 10.02 12.66 9 13 C8.67 14.65 8.34 16.3 8 18 C7.67 18 7.34 18 7 18 C6.896875 16.80375 6.79375 15.6075 6.6875 14.375 C6.21132979 10.42558824 4.9173106 7.50117588 3 4 C3 3.34 3 2.68 3 2 C2.01 1.67 1.02 1.34 0 1 C0 0.67 0 0.34 0 0 Z " fill="#151721" transform="translate(106,95)"/>
<path d="M0 0 C0.66 0.33 1.32 0.66 2 1 C1.67 1.33 1.34 1.66 1 2 C1.66 2.66 2.32 3.32 3 4 C-4.11389522 12.81548975 -4.11389522 12.81548975 -9 14 C-9.66 13.34 -10.32 12.68 -11 12 C-9.02 11.67 -7.04 11.34 -5 11 C-5 10.01 -5 9.02 -5 8 C-4.34 8 -3.68 8 -3 8 C-3.33 7.01 -3.66 6.02 -4 5 C-2.99500868 2.37156116 -2.55192629 1.27596315 0 0 Z " fill="#0D0F10" transform="translate(185,55)"/>
<path d="M0 0 C0.99 0.33 1.98 0.66 3 1 C3.18451025 18.85649203 3.18451025 18.85649203 2 27 C1.67 27 1.34 27 1 27 C0.67 18.09 0.34 9.18 0 0 Z " fill="#07070A" transform="translate(265,52)"/>
<path d="M0 0 C0.66 0 1.32 0 2 0 C0.41037341 4.03520597 -1.28232318 8.01811282 -3 12 C-3.66 12 -4.32 12 -5 12 C-5.12375 12.886875 -5.2475 13.77375 -5.375 14.6875 C-5.94412736 17.70387502 -6.76614436 20.20326054 -8 23 C-8.33 23 -8.66 23 -9 23 C-8.77837361 16.12958196 -7.23593286 12.00372066 -3.47265625 6.26171875 C-2.14576865 4.2238728 -1.0396983 2.19491863 0 0 Z " fill="#1E2229" transform="translate(66,198)"/>
<path d="M0 0 C0.66 0.33 1.32 0.66 2 1 C1 3 0 5 -1 7 C-5.08378283 6.25749403 -9.01939223 5.17076699 -13 4 C-13 3.67 -13 3.34 -13 3 C-12.22914063 2.86722656 -11.45828125 2.73445313 -10.6640625 2.59765625 C-9.66117188 2.42105469 -8.65828125 2.24445313 -7.625 2.0625 C-6.62726563 1.88847656 -5.62953125 1.71445313 -4.6015625 1.53515625 C-2.03090344 1.12287938 -2.03090344 1.12287938 0 0 Z " fill="#101014" transform="translate(179,118)"/>
<path d="M0 0 C2 1 2 1 3.1875 2.375 C5.82849743 4.7427908 8.70874744 5.6959188 12 7 C12 7.66 12 8.32 12 9 C13.32 9.66 14.64 10.32 16 11 C10.59305933 10.56744475 7.24633878 9.41778487 3 6 C3 5.34 3 4.68 3 4 C1.35 3.67 -0.3 3.34 -2 3 C-1.34 2.67 -0.68 2.34 0 2 C0 1.34 0 0.68 0 0 Z " fill="#0B0C12" transform="translate(209,151)"/>
<path d="M0 0 C0.99 0 1.98 0 3 0 C1.63855967 5.19822672 -0.46730171 8.09543873 -4 12 C-5.32 11.67 -6.64 11.34 -8 11 C-6.1875 8 -6.1875 8 -4 5 C-3.01 5 -2.02 5 -1 5 C-0.67 3.35 -0.34 1.7 0 0 Z " fill="#111113" transform="translate(188,108)"/>
<path d="M0 0 C6.93 0 13.86 0 21 0 C16.68499479 3.23625391 14.46216798 3.46270979 9.375 3.375 C8.3540625 3.39240234 8.3540625 3.39240234 7.3125 3.41015625 C5.3359375 3.3984375 5.3359375 3.3984375 2 3 C1.34 2.01 0.68 1.02 0 0 Z " fill="#010102" transform="translate(30,109)"/>
<path d="M0 0 C0.66 0 1.32 0 2 0 C1.35953563 2.88208966 0.65269374 4.56717555 -1.84375 6.22265625 C-7.33870968 9 -7.33870968 9 -10 9 C-8.63016497 5.83884224 -8.0109362 5.0072908 -5 3 C-4.34 3 -3.68 3 -3 3 C-2.505 2.505 -2.01 2.01 -1.5 1.5 C-1.005 1.005 -0.51 0.51 0 0 Z " fill="#0D0E10" transform="translate(189,186)"/>
<path d="M0 0 C0.99 0 1.98 0 3 0 C2.69201674 1.48011371 2.378482 2.95907325 2.0625 4.4375 C1.88847656 5.26121094 1.71445312 6.08492187 1.53515625 6.93359375 C1 9 1 9 0 10 C-0.39943176 12.52195967 -0.75079848 15.02963656 -1.0625 17.5625 C-1.15337891 18.27341797 -1.24425781 18.98433594 -1.33789062 19.71679688 C-1.56239503 21.47738403 -1.78168397 23.23863478 -2 25 C-2.33 25 -2.66 25 -3 25 C-2.60271115 16.47919963 -2.21772491 8.27950633 0 0 Z " fill="#78797D" transform="translate(32,41)"/>
<path d="M0 0 C0 0.33 0 0.66 0 1 C-0.94875 1.309375 -1.8975 1.61875 -2.875 1.9375 C-5.86080408 2.87394742 -5.86080408 2.87394742 -8 4 C-13.40486458 4.3305133 -18.69264005 4.11733894 -24 3 C-24 2.67 -24 2.34 -24 2 C-23.02417969 1.93941406 -22.04835937 1.87882813 -21.04296875 1.81640625 C-19.77066406 1.73261719 -18.49835938 1.64882812 -17.1875 1.5625 C-15.92292969 1.48128906 -14.65835938 1.40007812 -13.35546875 1.31640625 C-8.7094802 0.87830954 -4.76174724 -0.08984429 0 0 Z " fill="#141618" transform="translate(156,206)"/>
<path d="M0 0 C0.66 0.66 1.32 1.32 2 2 C-5.89687924 4.23744912 -5.89687924 4.23744912 -10 3 C-12.33094534 2.6503582 -14.66404762 2.31445513 -17 2 C-17 1.67 -17 1.34 -17 1 C-14.91835982 0.63601378 -12.83459438 0.28416713 -10.75 -0.0625 C-9.00976562 -0.35833984 -9.00976562 -0.35833984 -7.234375 -0.66015625 C-4.3492649 -0.96330188 -2.65432578 -1.06538305 0 0 Z " fill="#0F1013" transform="translate(231,255)"/>
<path d="M0 0 C3.29148243 1.13499394 3.9959869 1.99283376 5.75 5.125 C6.1625 6.07375 6.575 7.0225 7 8 C6 9 6 9 2.4375 9.0625 C1.303125 9.041875 0.16875 9.02125 -1 9 C-0.7525 7.329375 -0.7525 7.329375 -0.5 5.625 C0.0455458 2.27967967 0.0455458 2.27967967 0 0 Z " fill="#11131C" transform="translate(188,139)"/>
<path d="M0 0 C2 0 2 0 3.62109375 1.609375 C4.22050781 2.31578125 4.81992188 3.0221875 5.4375 3.75 C6.33275391 4.79414062 6.33275391 4.79414062 7.24609375 5.859375 C8.89081098 7.86673589 10.46126108 9.91070312 12 12 C8.58706136 10.498307 5.74617993 8.42474961 2.75 6.2421875 C0.57340455 4.69719341 -1.6876901 3.33132994 -4 2 C-3.34 1.67 -2.68 1.34 -2 1 C-1.34 1.33 -0.68 1.66 0 2 C0 1.34 0 0.68 0 0 Z " fill="#2F2E33" transform="translate(81,50)"/>
<path d="M0 0 C1.9375 0.3125 1.9375 0.3125 4 1 C5.14077657 4.42232972 5.09815117 7.08673217 5.0625 10.6875 C5.05347656 11.86699219 5.04445312 13.04648437 5.03515625 14.26171875 C5.02355469 15.16535156 5.01195312 16.06898437 5 17 C4.67 17 4.34 17 4 17 C3.87625 15.906875 3.7525 14.81375 3.625 13.6875 C3.24535199 9.92618198 3.24535199 9.92618198 1 7 C0.60612212 4.67612053 0.26513915 2.34206251 0 0 Z " fill="#1F2125" transform="translate(211,48)"/>
<path d="M0 0 C2.475 0.495 2.475 0.495 5 1 C5.33 1.99 5.66 2.98 6 4 C7.32 4 8.64 4 10 4 C9.67 5.32 9.34 6.64 9 8 C3.5 6.53333333 3.5 6.53333333 1.125 4 C0 2 0 2 0 0 Z " fill="#0C0E11" transform="translate(36,251)"/>
<path d="M0 0 C1.32 0 2.64 0 4 0 C4.33 0.66 4.66 1.32 5 2 C6.88013106 3.12224855 6.88013106 3.12224855 9.0625 4.125 C9.79597656 4.47820312 10.52945313 4.83140625 11.28515625 5.1953125 C12.13400391 5.59363281 12.13400391 5.59363281 13 6 C13 6.66 13 7.32 13 8 C14.134375 8.12375 15.26875 8.2475 16.4375 8.375 C17.613125 8.58125 18.78875 8.7875 20 9 C20.33 9.66 20.66 10.32 21 11 C18.03 10.34 15.06 9.68 12 9 C12 8.34 12 7.68 12 7 C9.03 6.505 9.03 6.505 6 6 C6 5.34 6 4.68 6 4 C4.68 3.67 3.36 3.34 2 3 C2 2.34 2 1.68 2 1 C1.34 0.67 0.68 0.34 0 0 Z " fill="#9898A3" transform="translate(208,155)"/>
<path d="M0 0 C-0.99 1.485 -0.99 1.485 -2 3 C-4.8203125 3.51171875 -4.8203125 3.51171875 -8.125 3.6875 C-9.76855469 3.78611328 -9.76855469 3.78611328 -11.4453125 3.88671875 C-12.28835937 3.92410156 -13.13140625 3.96148437 -14 4 C-14 3.01 -14 2.02 -14 1 C-9.27616037 0.34843591 -4.78025483 -0.11950637 0 0 Z " fill="#020204" transform="translate(158,203)"/>
<path d="M0 0 C0.33 0.66 0.66 1.32 1 2 C3.01669827 3.13350534 3.01669827 3.13350534 5 4 C5 4.66 5 5.32 5 6 C5.66 6.33 6.32 6.66 7 7 C7 7.66 7 8.32 7 9 C7.99 9.66 8.98 10.32 10 11 C7.8125 11.4375 7.8125 11.4375 5 11 C2.88553704 8.92554039 1.27610033 6.67166538 0 4 C0 2.68 0 1.36 0 0 Z " fill="#1C1D21" transform="translate(22,182)"/>
<path d="M0 0 C2.31 0.33 4.62 0.66 7 1 C7 1.66 7 2.32 7 3 C7.69867188 3.09796875 8.39734375 3.1959375 9.1171875 3.296875 C10.02726563 3.44640625 10.93734375 3.5959375 11.875 3.75 C13.23238281 3.95882812 13.23238281 3.95882812 14.6171875 4.171875 C17 5 17 5 18.3203125 7.078125 C18.54460937 7.71234375 18.76890625 8.3465625 19 9 C16.525 8.505 16.525 8.505 14 8 C14 7.34 14 6.68 14 6 C10.7 5.34 7.4 4.68 4 4 C4 3.34 4 2.68 4 2 C2.68 1.67 1.36 1.34 0 1 C0 0.67 0 0.34 0 0 Z " fill="#97979B" transform="translate(209,179)"/>
<path d="M0 0 C0.33 0 0.66 0 1 0 C0.33333333 4.66666667 -0.33333333 9.33333333 -1 14 C-1.99 14 -2.98 14 -4 14 C-3.71831703 12.04020573 -3.42433283 10.08217622 -3.125 8.125 C-2.96257813 7.03445312 -2.80015625 5.94390625 -2.6328125 4.8203125 C-2 2 -2 2 0 0 Z " fill="#0A0909" transform="translate(57,49)"/>
<path d="M0 0 C5.28 0 10.56 0 16 0 C15.67 0.66 15.34 1.32 15 2 C12.71484375 2.4140625 12.71484375 2.4140625 9.9375 2.625 C8.55884766 2.73714844 8.55884766 2.73714844 7.15234375 2.8515625 C6.44207031 2.90054687 5.73179688 2.94953125 5 3 C5 2.34 5 1.68 5 1 C3.35 1.33 1.7 1.66 0 2 C0 1.34 0 0.68 0 0 Z " fill="#4F5054" transform="translate(93,7)"/>
<path d="M0 0 C6.96050253 0.38669459 11.9394075 2.63438409 18 6 C14.41322148 7.29522558 12.46449298 6.70762204 9 5.25 C8.154375 4.90453125 7.30875 4.5590625 6.4375 4.203125 C4.04115206 3.02031223 2.07661109 1.6728256 0 0 Z " fill="#0E0E19" transform="translate(225,163)"/>
<path d="M0 0 C1.32 0.66 2.64 1.32 4 2 C3.44687265 6.02992782 2.8441938 10.02022924 2 14 C0.5 12.625 0.5 12.625 -1 11 C-1 10.34 -1 9.68 -1 9 C-0.34 8.67 0.32 8.34 1 8 C0.67 7.34 0.34 6.68 0 6 C-0.039992 4.00039988 -0.04346799 1.99952758 0 0 Z " fill="#F2F0F2" transform="translate(73,237)"/>
<path d="M0 0 C0 0.99 0 1.98 0 3 C-0.99 3.66 -1.98 4.32 -3 5 C-2.625 3.0625 -2.625 3.0625 -2 1 C-1.34 0.67 -0.68 0.34 0 0 Z M-7 5 C-4.875 5.375 -4.875 5.375 -3 6 C-5.97 8.475 -5.97 8.475 -9 11 C-9 7 -9 7 -7 5 Z " fill="#0F0F14" transform="translate(93,168)"/>
<path d="M0 0 C0.99 0.33 1.98 0.66 3 1 C4.1875 3.5625 4.1875 3.5625 5 6 C5.66 6 6.32 6 7 6 C7 6.99 7 7.98 7 9 C7.66 9.33 8.32 9.66 9 10 C8.34 10 7.68 10 7 10 C6.67 11.32 6.34 12.64 6 14 C4.66667905 11.3333581 5.32897967 9.83319697 6 7 C5.34 7 4.68 7 4 7 C3.67 7.66 3.34 8.32 3 9 C2.01 6.03 1.02 3.06 0 0 Z " fill="#1D2029" transform="translate(188,90)"/>
<path d="M0 0 C0.66 0.66 1.32 1.32 2 2 C0.25 7.75 0.25 7.75 -2 10 C-2.66 9.67 -3.32 9.34 -4 9 C-3.35455571 5.51460083 -1.89865603 2.97180943 0 0 Z " fill="#0F0C0D" transform="translate(86,218)"/>
<path d="M0 0 C-6.23664375 4.53574091 -11.43801103 4.44701413 -19 4 C-19.33 3.34 -19.66 2.68 -20 2 C-16.37 2.33 -12.74 2.66 -9 3 C-9 2.34 -9 1.68 -9 1 C-2.25 -1.125 -2.25 -1.125 0 0 Z " fill="#A6A7A5" transform="translate(49,186)"/>
<path d="M0 0 C1.9375 0.375 1.9375 0.375 4 1 C4.33 1.66 4.66 2.32 5 3 C2.04210873 3.2210949 -0.91552764 3.42740245 -3.875 3.625 C-5.13763672 3.72167969 -5.13763672 3.72167969 -6.42578125 3.8203125 C-7.63427734 3.89765625 -7.63427734 3.89765625 -8.8671875 3.9765625 C-9.61081543 4.02893066 -10.35444336 4.08129883 -11.12060547 4.13525391 C-13 4 -13 4 -15 2 C-10.05 2 -5.1 2 0 2 C0 1.34 0 0.68 0 0 Z " fill="#1B1F25" transform="translate(232,121)"/>
<path d="M0 0 C0.66 0 1.32 0 2 0 C1.5317879 4.77576339 0.75668002 8.04476345 -2 12 C-2.66 11.67 -3.32 11.34 -4 11 C-3.5247412 9.35303396 -3.04468109 7.70745272 -2.5625 6.0625 C-2.29566406 5.14597656 -2.02882813 4.22945313 -1.75390625 3.28515625 C-1 1 -1 1 0 0 Z " fill="#040508" transform="translate(115,107)"/>
<path d="M0 0 C2.475 0.495 2.475 0.495 5 1 C5 1.66 5 2.32 5 3 C7.31 3.33 9.62 3.66 12 4 C12 4.33 12 4.66 12 5 C8.7 5 5.4 5 2 5 C2 4.01 2 3.02 2 2 C1.34 2 0.68 2 0 2 C0 1.34 0 0.68 0 0 Z " fill="#040305" transform="translate(208,180)"/>
<path d="M0 0 C0.66 0 1.32 0 2 0 C4.56261466 3.79266969 6.20056291 6.53875592 5.5625 11.1875 C5.376875 12.115625 5.19125 13.04375 5 14 C2.70986347 10.5647952 2.82157027 9.014669 3 5 C2.34 5 1.68 5 1 5 C0.67 3.35 0.34 1.7 0 0 Z " fill="#060607" transform="translate(87,150)"/>
<path d="M0 0 C2 1.375 2 1.375 4 3 C4 3.66 4 4.32 4 5 C5.65 5 7.3 5 9 5 C8.01 6.485 8.01 6.485 7 8 C3.76912579 7.44295272 1.97638863 6.66812465 0 4 C0 2.68 0 1.36 0 0 Z " fill="#121314" transform="translate(8,140)"/>
<path d="M0 0 C6.51791392 -0.3540919 11.17521449 -0.03901852 17 3 C16.67 3.66 16.34 4.32 16 5 C11.545 4.01 11.545 4.01 7 3 C7 2.34 7 1.68 7 1 C4.69 1 2.38 1 0 1 C0 0.67 0 0.34 0 0 Z " fill="#A9ABB3" transform="translate(187,148)"/>
<path d="M0 0 C3.96 0.33 7.92 0.66 12 1 C11.01 1.33 10.02 1.66 9 2 C8.67 2.99 8.34 3.98 8 5 C5.36 4.01 2.72 3.02 0 2 C0 1.34 0 0.68 0 0 Z " fill="#131519" transform="translate(91,118)"/>
<path d="M0 0 C0.56203125 0.31710938 1.1240625 0.63421875 1.703125 0.9609375 C4.15196317 2.06874525 6.08387855 2.38975399 8.75 2.625 C9.54921875 2.69976562 10.3484375 2.77453125 11.171875 2.8515625 C11.77515625 2.90054688 12.3784375 2.94953125 13 3 C13 3.33 13 3.66 13 4 C11.35 4 9.7 4 8 4 C8 4.66 8 5.32 8 6 C5.21788056 5.62403791 3.4120716 5.32681541 1.1875 3.5625 C0 2 0 2 0 0 Z " fill="#070807" transform="translate(93,62)"/>
<path d="M0 0 C0.99 0.33 1.98 0.66 3 1 C3 1.66 3 2.32 3 3 C3.99 3.33 4.98 3.66 6 4 C10 8.45714286 10 8.45714286 10 11 C8 11 8 11 6.5625 9.609375 C6.046875 8.99578125 5.53125 8.3821875 5 7.75 C4.484375 7.14671875 3.96875 6.5434375 3.4375 5.921875 C2.01661692 4.0222161 0.98970907 2.15071395 0 0 Z " fill="#232225" transform="translate(231,30)"/>
<path d="M0 0 C1.75070517 0.11470137 3.50057536 0.24219028 5.25 0.375 C6.22453125 0.44460937 7.1990625 0.51421875 8.203125 0.5859375 C11 1 11 1 15 3 C11.04 3 7.08 3 3 3 C3 2.34 3 1.68 3 1 C1.68 1.33 0.36 1.66 -1 2 C-0.67 1.34 -0.34 0.68 0 0 Z " fill="#0F1011" transform="translate(117,205)"/>
<path d="M0 0 C4.24480464 -0.33292585 6.35542625 -0.43885872 9.9375 2 C10.618125 2.66 11.29875 3.32 12 4 C3.42857143 3.28571429 3.42857143 3.28571429 0 0 Z " fill="#0D0E11" transform="translate(102,68)"/>
<path d="M0 0 C2.39763185 2.39763185 2.34280586 3.33273498 2.625 6.625 C2.69976562 7.44226562 2.77453125 8.25953125 2.8515625 9.1015625 C2.90054688 9.72804688 2.94953125 10.35453125 3 11 C2.01 10.67 1.02 10.34 0 10 C-0.19412181 8.52168779 -0.38012131 7.04230684 -0.5625 5.5625 C-0.66691406 4.73878906 -0.77132812 3.91507813 -0.87890625 3.06640625 C-0.91886719 2.38449219 -0.95882812 1.70257813 -1 1 C-0.67 0.67 -0.34 0.34 0 0 Z " fill="#040205" transform="translate(237,40)"/>
<path d="M0 0 C-0.99 0.33 -1.98 0.66 -3 1 C-3 1.99 -3 2.98 -3 4 C-4.216875 3.835 -5.43375 3.67 -6.6875 3.5 C-9.81607836 3.10545459 -12.84168804 2.90130275 -16 3 C-11.10496718 0.06298031 -5.59488309 -0.16954191 0 0 Z " fill="#525257" transform="translate(57,7)"/>
<path d="M0 0 C4.96916636 0.51405169 9.29026351 1.23384882 14 3 C12.328125 4.1171875 12.328125 4.1171875 10 5 C7.421875 4.3203125 7.421875 4.3203125 4.75 3.125 C3.85796875 2.73570312 2.9659375 2.34640625 2.046875 1.9453125 C1.37140625 1.63335937 0.6959375 1.32140625 0 1 C0 0.67 0 0.34 0 0 Z " fill="#202329" transform="translate(32,194)"/>
<path d="M0 0 C5.78461538 4.43076923 5.78461538 4.43076923 6.875 7.3125 C6.936875 8.1478125 6.936875 8.1478125 7 9 C4.525 8.01 4.525 8.01 2 7 C2 6.01 2 5.02 2 4 C1.34 4 0.68 4 0 4 C-0.33 3.01 -0.66 2.02 -1 1 C-0.67 0.67 -0.34 0.34 0 0 Z " fill="#202226" transform="translate(117,139)"/>
<path d="M0 0 C0.66 0.33 1.32 0.66 2 1 C2 5.95 2 10.9 2 16 C0.35 16.33 -1.3 16.66 -3 17 C-2.50886719 16.65324219 -2.01773437 16.30648437 -1.51171875 15.94921875 C0.77745767 12.99754166 0.2884377 10.47990301 0.1875 6.8125 C0.16042969 5.54019531 0.13335937 4.26789063 0.10546875 2.95703125 C0.07066406 1.98121094 0.03585937 1.00539062 0 0 Z " fill="#74757A" transform="translate(260,127)"/>
<path d="M0 0 C1.45922693 0.11409593 2.91740598 0.24165544 4.375 0.375 C5.59316406 0.47941406 5.59316406 0.47941406 6.8359375 0.5859375 C9 1 9 1 11 3 C10.34 3 9.68 3 9 3 C8.67 3.66 8.34 4.32 8 5 C6.68 4.67 5.36 4.34 4 4 C4 3.34 4 2.68 4 2 C2.68 1.34 1.36 0.68 0 0 Z " fill="#181B21" transform="translate(112,72)"/>
<path d="M0 0 C0.99 0.33 1.98 0.66 3 1 C1.02 3.97 -0.96 6.94 -3 10 C-4 6 -4 6 -2.0625 2.75 C-1.381875 1.8425 -0.70125 0.935 0 0 Z " fill="#575A5F" transform="translate(38,30)"/>
<path d="M0 0 C4.56454251 0.54339792 7.9728176 1.79463821 12 4 C9.18185434 5.40907283 7.82722796 4.50872691 4.875 3.5625 C3.96492187 3.27503906 3.05484375 2.98757812 2.1171875 2.69140625 C1.41851562 2.46324219 0.71984375 2.23507813 0 2 C0 1.34 0 0.68 0 0 Z " fill="#28292D" transform="translate(210,18)"/>
<path d="M0 0 C1.25955231 3.77865693 0.48087189 5.03411786 -0.9375 8.6875 C-1.31777344 9.68136719 -1.69804688 10.67523438 -2.08984375 11.69921875 C-2.39019531 12.45847656 -2.69054688 13.21773437 -3 14 C-3.33 14 -3.66 14 -4 14 C-3.66009167 8.62007164 -3.31442207 4.46726453 0 0 Z " fill="#111318" transform="translate(61,207)"/>
<path d="M0 0 C0.8723412 2.99480917 1.10829766 5.63575911 1.0625 8.75 C1.05347656 9.54921875 1.04445312 10.3484375 1.03515625 11.171875 C1.01775391 12.07679688 1.01775391 12.07679688 1 13 C0.34 13 -0.32 13 -1 13 C-1.144375 11.906875 -1.28875 10.81375 -1.4375 9.6875 C-1.88288104 6.06877013 -1.88288104 6.06877013 -3 3 C-2.01 2.01 -1.02 1.02 0 0 Z " fill="#4D5054" transform="translate(183,149)"/>
<path d="M0 0 C3.63 0 7.26 0 11 0 C7.09567131 1.95216435 4.27786748 2.50639991 0 3 C0 2.01 0 1.02 0 0 Z " fill="#1A1B1B" transform="translate(63,149)"/>
<path d="M0 0 C0.66 0.66 1.32 1.32 2 2 C-0.31 4.31 -2.62 6.62 -5 9 C-5.66 8.67 -6.32 8.34 -7 8 C-4.69 5.36 -2.38 2.72 0 0 Z " fill="#0A0F19" transform="translate(75,188)"/>
<path d="M0 0 C0.66 0.33 1.32 0.66 2 1 C2 4.63 2 8.26 2 12 C-0.25900493 9.74099507 -0.34458029 9.05816925 -0.6875 6 C-0.77386719 5.29875 -0.86023438 4.5975 -0.94921875 3.875 C-1 2 -1 2 0 0 Z " fill="#0A0B0F" transform="translate(186,126)"/>
<path d="M0 0 C0 0.66 0 1.32 0 2 C-3.12180401 2.96661363 -5.52083795 2.98988909 -8.75 2.5625 C-9.94882813 2.40974609 -9.94882813 2.40974609 -11.171875 2.25390625 C-11.77515625 2.17011719 -12.3784375 2.08632812 -13 2 C-13 1.67 -13 1.34 -13 1 C-11.20994059 0.63779734 -9.41787943 0.28547531 -7.625 -0.0625 C-6.12839844 -0.35833984 -6.12839844 -0.35833984 -4.6015625 -0.66015625 C-2 -1 -2 -1 0 0 Z " fill="#020205" transform="translate(179,120)"/>
<path d="M0 0 C2.5 1.3125 2.5 1.3125 5 3 C5 3.99 5 4.98 5 6 C4.34 6 3.68 6 3 6 C3 5.34 3 4.68 3 4 C1.35 3.67 -0.3 3.34 -2 3 C-1.34 2.67 -0.68 2.34 0 2 C0 1.34 0 0.68 0 0 Z " fill="#4F4E51" transform="translate(85,25)"/>
<path d="M0 0 C0.99 0.33 1.98 0.66 3 1 C2.67 3.31 2.34 5.62 2 8 C1.34 8 0.68 8 0 8 C-0.33 8.66 -0.66 9.32 -1 10 C-0.67 6.7 -0.34 3.4 0 0 Z " fill="#A5A5AF" transform="translate(153,132)"/>
<path d="M0 0 C1.4589426 0.47730838 2.91713496 0.95691042 4.375 1.4375 C5.18710938 1.70433594 5.99921875 1.97117187 6.8359375 2.24609375 C9 3 9 3 11 4 C10.67 4.66 10.34 5.32 10 6 C5.56909529 4.79157144 3.01887244 3.48331435 0 0 Z " fill="#262830" transform="translate(100,91)"/>
<path d="M0 0 C0.66 0 1.32 0 2 0 C3.15837573 3.47512718 2.77265943 5.13670286 2.0625 8.6875 C1.77052734 10.17830078 1.77052734 10.17830078 1.47265625 11.69921875 C1.23869141 12.83810547 1.23869141 12.83810547 1 14 C0.67 14 0.34 14 0 14 C0 9.38 0 4.76 0 0 Z " fill="#4C5053" transform="translate(55,219)"/>
<path d="M0 0 C1.46911544 3.81970016 0.52561108 6.30641529 -1 10 C-1.66 10.66 -2.32 11.32 -3 12 C-3.43200679 7.24792529 -1.98489083 4.21789302 0 0 Z " fill="#B5B7BB" transform="translate(61,210)"/>
<path d="M0 0 C3.375 0.3125 3.375 0.3125 7 1 C7.66 1.99 8.32 2.98 9 4 C4.545 3.01 4.545 3.01 0 2 C0 1.34 0 0.68 0 0 Z " fill="#050506" transform="translate(219,186)"/>
<path d="M0 0 C0.33 0.99 0.66 1.98 1 3 C0.01 3.33 -0.98 3.66 -2 4 C-2 4.66 -2 5.32 -2 6 C-2.66 6 -3.32 6 -4 6 C-2.84826645 3.53199953 -1.95216435 1.95216435 0 0 Z " fill="#010202" transform="translate(183,189)"/>
<path d="M0 0 C0 0.66 0 1.32 0 2 C-1.98 2 -3.96 2 -6 2 C-6.33 2.99 -6.66 3.98 -7 5 C-7.33 4.34 -7.66 3.68 -8 3 C-7.67 2.01 -7.34 1.02 -7 0 C-4.3333581 -1.33332095 -2.83319697 -0.67102033 0 0 Z " fill="#565759" transform="translate(181,161)"/>
<path d="M0 0 C2 3 2 3 3 6 C2.67 6.66 2.34 7.32 2 8 C1.34 8 0.68 8 0 8 C-0.38063221 5.6739143 -0.71269945 3.33944736 -1 1 C-0.67 0.67 -0.34 0.34 0 0 Z " fill="#1B2023" transform="translate(217,104)"/>
<path d="M0 0 C3.1875 -0.3125 3.1875 -0.3125 6 0 C3.16569547 3.2542015 1.31392226 4.5206753 -3 5 C-1.875 2.5 -1.875 2.5 0 0 Z " fill="#7F8284" transform="translate(33,167)"/>
<path d="M0 0 C3.37503669 1.1858237 5.64722731 2.27573689 8 5 C7.01 5.33 6.02 5.66 5 6 C2.3125 4.1875 2.3125 4.1875 0 2 C0 1.34 0 0.68 0 0 Z " fill="#1E1E20" transform="translate(185,165)"/>
<path d="M0 0 C4.2742558 1.5830577 6.26531794 4.50568404 9 8 C5.56247993 6.4722133 2.81046312 4.49818944 0 2 C0 1.34 0 0.68 0 0 Z " fill="#121212" transform="translate(84,54)"/>
<path d="M0 0 C0.66 0.33 1.32 0.66 2 1 C0.02 3.97 0.02 3.97 -2 7 C-2.66 6.34 -3.32 5.68 -4 5 C-2.25 1.125 -2.25 1.125 0 0 Z " fill="#191919" transform="translate(185,55)"/>
<path d="M0 0 C2.0625 1.625 2.0625 1.625 4 4 C3.75 7.25 3.75 7.25 3 10 C1.11608215 6.73454239 0.50712033 3.71888239 0 0 Z " fill="#222327" transform="translate(260,40)"/>
<path d="M0 0 C2.31 0.33 4.62 0.66 7 1 C6.67 1.66 6.34 2.32 6 3 C4.35 3 2.7 3 1 3 C0.67 2.01 0.34 1.02 0 0 Z " fill="#03040A" transform="translate(51,259)"/>
<path d="M0 0 C0.66 0 1.32 0 2 0 C1.67 2.31 1.34 4.62 1 7 C0.34 7 -0.32 7 -1 7 C-0.67 4.69 -0.34 2.38 0 0 Z " fill="#03040A" transform="translate(192,97)"/>
<path d="M0 0 C6.875 2.75 6.875 2.75 8 5 C3.48279689 5.36625971 3.48279689 5.36625971 1.1875 3.625 C0 2 0 2 0 0 Z " fill="#515152" transform="translate(69,42)"/>
</svg>
